<svg width="25" height="24" viewBox="0 0 25 24" fill="none" xmlns="http://www.w3.org/2000/svg">
<path d="M8 18C8.39782 18 8.77936 18.158 9.06066 18.4393C9.34196 18.7206 9.5 19.1022 9.5 19.5C9.5 19.8978 9.34196 20.2794 9.06066 20.5607C8.77936 20.842 8.39782 21 8 21C7.60218 21 7.22064 20.842 6.93934 20.5607C6.65804 20.2794 6.5 19.8978 6.5 19.5C6.5 19.1022 6.65804 18.7206 6.93934 18.4393C7.22064 18.158 7.60218 18 8 18ZM17 18C17.3978 18 17.7794 18.158 18.0607 18.4393C18.342 18.7206 18.5 19.1022 18.5 19.5C18.5 19.8978 18.342 20.2794 18.0607 20.5607C17.7794 20.842 17.3978 21 17 21C16.6022 21 16.2206 20.842 15.9393 20.5607C15.658 20.2794 15.5 19.8978 15.5 19.5C15.5 19.1022 15.658 18.7206 15.9393 18.4393C16.2206 18.158 16.6022 18 17 18Z" stroke="#043503" stroke-width="1.5"/>
<path d="M11.5 10.8L12.643 12L15.5 9" stroke="#043503" stroke-width="1.5" stroke-linecap="round" stroke-linejoin="round"/>
<path d="M2.5 3L2.761 3.092C4.063 3.549 4.714 3.778 5.086 4.323C5.458 4.868 5.458 5.591 5.458 7.038V9.76C5.458 12.702 5.521 13.672 6.388 14.586C7.254 15.5 8.648 15.5 11.438 15.5H12.5M16.74 15.5C18.301 15.5 19.082 15.5 19.634 15.05C20.185 14.6 20.343 13.836 20.658 12.307L21.158 9.883C21.505 8.143 21.678 7.274 21.234 6.697C20.791 6.12 19.274 6.12 17.589 6.12H11.524M5.458 6.12H7.5" stroke="#043503" stroke-width="1.5" stroke-linecap="round"/>
</svg>
