<svg width="24" height="24" viewBox="0 0 24 24" fill="none" xmlns="http://www.w3.org/2000/svg">
<mask id="path-1-inside-1_212_46" fill="white">
<path d="M2.00248 22.4155C3.58733 23.9999 5.77691 23.9133 7.50534 22.1943C9.48405 20.2161 11.443 16.2591 14.1996 13.5029C16.3412 11.3613 18.7712 13.4451 21.7193 10.6216C22.9005 9.49834 23.5536 7.88477 23.3136 6.71305L19.6258 7.72148C19.0112 7.88434 18.5693 7.49091 18.3773 6.82834L18.0988 5.85805C17.9068 5.19548 18.1373 4.63834 18.7515 4.47548L22.4299 3.47648C22.3245 3.14048 22.0073 2.67934 21.6135 2.27605C19.3952 -8.92878e-05 15.679 0.257054 13.5375 2.06477C10.339 5.10934 12.7592 8.3262 10.6562 10.4296C8.14948 12.9363 4.18305 14.9339 2.21419 16.9122C0.485763 18.6312 0.409049 20.8208 2.00291 22.4151M2.91576 21.4928C1.87862 20.4363 1.95491 18.9479 3.10733 17.8049C5.09591 15.8266 9.30191 13.6178 11.578 11.3416C14.056 8.86363 11.4435 5.77148 14.4688 2.97677C15.9958 1.56505 18.6178 1.45963 20.3848 2.81348L18.4926 3.31277C17.0903 3.67791 16.4758 4.7532 16.8983 6.21334L17.167 7.14462L18.2329 11.0532C16.5812 11.2932 14.8716 11.0056 13.2778 12.5806C10.7805 15.0775 8.60034 19.3126 6.61262 21.3106C5.45034 22.4819 3.95205 22.5591 2.91491 21.4928M14.0835 7.86505L16.1488 7.31777C16.3313 7.26977 16.4368 7.0872 16.3888 6.88534C16.3656 6.79883 16.3092 6.72501 16.2317 6.68003C16.1543 6.63505 16.0622 6.62258 15.9756 6.64534L13.9013 7.20248C13.8149 7.22562 13.7412 7.28201 13.6962 7.35934C13.6512 7.43667 13.6387 7.52865 13.6613 7.6152C13.7188 7.81662 13.8816 7.92248 14.0835 7.86505ZM14.3436 8.92148L16.3986 8.3742C16.4436 8.36294 16.4858 8.34256 16.5226 8.31432C16.5594 8.28609 16.5899 8.2506 16.6124 8.21006C16.635 8.16951 16.6489 8.12478 16.6534 8.07863C16.6579 8.03248 16.6529 7.9859 16.6386 7.94177C16.5911 7.7592 16.3986 7.6632 16.2259 7.70177L14.1516 8.26834C13.969 8.30691 13.8636 8.49891 13.9116 8.67163C13.969 8.87305 14.1418 8.97891 14.3436 8.92148ZM19.8658 8.87348L21.8539 8.33563C21.6328 8.8542 21.316 9.37277 20.8553 9.82405C20.2883 10.3718 19.7025 10.6885 19.0973 10.8612L18.5599 8.90263C18.9439 9.01748 19.3858 9.00805 19.8658 8.87348ZM14.5935 9.97791L16.6772 9.42077C16.8503 9.37277 16.9558 9.18077 16.9172 8.9982C16.9052 8.955 16.8846 8.91466 16.8567 8.87955C16.8288 8.84445 16.7942 8.81528 16.7548 8.79379C16.7154 8.77229 16.6722 8.75891 16.6276 8.75441C16.583 8.74992 16.5379 8.75441 16.495 8.76762L14.4302 9.32477C14.3432 9.34803 14.2687 9.40403 14.2221 9.48105C14.1755 9.55806 14.1606 9.65011 14.1803 9.73791C14.2189 9.93934 14.4109 10.0259 14.5935 9.97791ZM3.59676 20.8401C4.20191 21.4259 5.23905 21.4358 5.81548 20.8306C6.42062 20.1968 6.44934 19.1883 5.82491 18.5832C5.20091 17.9879 4.18262 17.9592 3.57748 18.5931C2.98219 19.2076 2.97276 20.2353 3.59676 20.8401Z"/>
</mask>
<path d="M2.00248 22.4155C3.58733 23.9999 5.77691 23.9133 7.50534 22.1943C9.48405 20.2161 11.443 16.2591 14.1996 13.5029C16.3412 11.3613 18.7712 13.4451 21.7193 10.6216C22.9005 9.49834 23.5536 7.88477 23.3136 6.71305L19.6258 7.72148C19.0112 7.88434 18.5693 7.49091 18.3773 6.82834L18.0988 5.85805C17.9068 5.19548 18.1373 4.63834 18.7515 4.47548L22.4299 3.47648C22.3245 3.14048 22.0073 2.67934 21.6135 2.27605C19.3952 -8.92878e-05 15.679 0.257054 13.5375 2.06477C10.339 5.10934 12.7592 8.3262 10.6562 10.4296C8.14948 12.9363 4.18305 14.9339 2.21419 16.9122C0.485763 18.6312 0.409049 20.8208 2.00291 22.4151M2.91576 21.4928C1.87862 20.4363 1.95491 18.9479 3.10733 17.8049C5.09591 15.8266 9.30191 13.6178 11.578 11.3416C14.056 8.86363 11.4435 5.77148 14.4688 2.97677C15.9958 1.56505 18.6178 1.45963 20.3848 2.81348L18.4926 3.31277C17.0903 3.67791 16.4758 4.7532 16.8983 6.21334L17.167 7.14462L18.2329 11.0532C16.5812 11.2932 14.8716 11.0056 13.2778 12.5806C10.7805 15.0775 8.60034 19.3126 6.61262 21.3106C5.45034 22.4819 3.95205 22.5591 2.91491 21.4928M14.0835 7.86505L16.1488 7.31777C16.3313 7.26977 16.4368 7.0872 16.3888 6.88534C16.3656 6.79883 16.3092 6.72501 16.2317 6.68003C16.1543 6.63505 16.0622 6.62258 15.9756 6.64534L13.9013 7.20248C13.8149 7.22562 13.7412 7.28201 13.6962 7.35934C13.6512 7.43667 13.6387 7.52865 13.6613 7.6152C13.7188 7.81662 13.8816 7.92248 14.0835 7.86505ZM14.3436 8.92148L16.3986 8.3742C16.4436 8.36294 16.4858 8.34256 16.5226 8.31432C16.5594 8.28609 16.5899 8.2506 16.6124 8.21006C16.635 8.16951 16.6489 8.12478 16.6534 8.07863C16.6579 8.03248 16.6529 7.9859 16.6386 7.94177C16.5911 7.7592 16.3986 7.6632 16.2259 7.70177L14.1516 8.26834C13.969 8.30691 13.8636 8.49891 13.9116 8.67163C13.969 8.87305 14.1418 8.97891 14.3436 8.92148ZM19.8658 8.87348L21.8539 8.33563C21.6328 8.8542 21.316 9.37277 20.8553 9.82405C20.2883 10.3718 19.7025 10.6885 19.0973 10.8612L18.5599 8.90263C18.9439 9.01748 19.3858 9.00805 19.8658 8.87348ZM14.5935 9.97791L16.6772 9.42077C16.8503 9.37277 16.9558 9.18077 16.9172 8.9982C16.9052 8.955 16.8846 8.91466 16.8567 8.87955C16.8288 8.84445 16.7942 8.81528 16.7548 8.79379C16.7154 8.77229 16.6722 8.75891 16.6276 8.75441C16.583 8.74992 16.5379 8.75441 16.495 8.76762L14.4302 9.32477C14.3432 9.34803 14.2687 9.40403 14.2221 9.48105C14.1755 9.55806 14.1606 9.65011 14.1803 9.73791C14.2189 9.93934 14.4109 10.0259 14.5935 9.97791ZM3.59676 20.8401C4.20191 21.4259 5.23905 21.4358 5.81548 20.8306C6.42062 20.1968 6.44934 19.1883 5.82491 18.5832C5.20091 17.9879 4.18262 17.9592 3.57748 18.5931C2.98219 19.2076 2.97276 20.2353 3.59676 20.8401Z" fill="#434C3E"/>
<path d="M7.50534 22.1943L7.80755 22.4982L7.80835 22.4974L7.50534 22.1943ZM14.1996 13.5029L14.5026 13.806L14.5027 13.806L14.1996 13.5029ZM21.7193 10.6216L21.424 10.3111L21.4229 10.3121L21.7193 10.6216ZM23.3136 6.71305L23.7335 6.62706L23.6417 6.17903L23.2006 6.29966L23.3136 6.71305ZM19.6258 7.72148L19.7355 8.13577L19.7388 8.13488L19.6258 7.72148ZM18.3773 6.82834L17.9654 6.94661L17.9657 6.94762L18.3773 6.82834ZM18.0988 5.85805L18.5107 5.73979L18.5104 5.73877L18.0988 5.85805ZM18.7515 4.47548L18.8613 4.88974L18.8638 4.88907L18.7515 4.47548ZM22.4299 3.47648L22.5422 3.89007L22.9722 3.7733L22.8388 3.34818L22.4299 3.47648ZM21.6135 2.27605L21.3066 2.57517L21.3069 2.57549L21.6135 2.27605ZM13.5375 2.06477L13.261 1.73727L13.2513 1.74553L13.242 1.75435L13.5375 2.06477ZM10.6562 10.4296L10.9592 10.7327L10.9593 10.7326L10.6562 10.4296ZM2.21419 16.9122L2.51641 17.2161L2.51796 17.2145L2.21419 16.9122ZM3.10733 17.8049L3.40913 18.1092L3.40959 18.1087L3.10733 17.8049ZM14.4688 2.97677L14.7596 3.29157L14.7597 3.29146L14.4688 2.97677ZM20.3848 2.81348L20.4941 3.22787L21.3392 3.00487L20.6454 2.47329L20.3848 2.81348ZM18.4926 3.31277L18.6006 3.72751L18.602 3.72716L18.4926 3.31277ZM16.8983 6.21334L17.3101 6.09453L17.31 6.0942L16.8983 6.21334ZM17.167 7.14462L17.5806 7.03186L17.5788 7.02581L17.167 7.14462ZM18.2329 11.0532L18.2945 11.4773L18.7738 11.4077L18.6464 10.9404L18.2329 11.0532ZM13.2778 12.5806L12.9765 12.2758L12.9747 12.2776L13.2778 12.5806ZM6.61262 21.3106L6.30879 21.0084L6.30841 21.0087L6.61262 21.3106ZM14.0835 7.86505L13.9737 7.45071L13.9662 7.45284L14.0835 7.86505ZM16.1488 7.31777L16.0398 6.90328L16.039 6.9035L16.1488 7.31777ZM16.3888 6.88534L16.8059 6.78615L16.8028 6.77464L16.3888 6.88534ZM15.9756 6.64534L15.8667 6.23084L15.8644 6.23144L15.9756 6.64534ZM13.9013 7.20248L14.0122 7.61648L14.0125 7.61638L13.9013 7.20248ZM13.6613 7.6152L13.2466 7.72365L13.2492 7.7327L13.6613 7.6152ZM14.3436 8.92148L14.2333 8.50729L14.2263 8.50927L14.3436 8.92148ZM16.3986 8.3742L16.2946 7.9584L16.2883 7.96006L16.3986 8.3742ZM16.6386 7.94177L16.2239 8.04983L16.227 8.06171L16.2308 8.0734L16.6386 7.94177ZM16.2259 7.70177L16.1325 7.2835L16.1227 7.28569L16.113 7.28834L16.2259 7.70177ZM14.1516 8.26834L14.2402 8.68765L14.2525 8.68507L14.2645 8.68177L14.1516 8.26834ZM13.9116 8.67163L13.4987 8.78638L13.4995 8.78913L13.9116 8.67163ZM19.8658 8.87348L19.7538 8.45976L19.7501 8.46082L19.8658 8.87348ZM21.8539 8.33563L22.2481 8.50374L22.5946 7.69126L21.742 7.92193L21.8539 8.33563ZM20.8553 9.82405L21.1531 10.1323L21.1552 10.1302L20.8553 9.82405ZM19.0973 10.8612L18.684 10.9746L18.7986 11.3921L19.215 11.2733L19.0973 10.8612ZM18.5599 8.90263L18.6827 8.49203L17.942 8.27048L18.1466 9.01603L18.5599 8.90263ZM14.5935 9.97791L14.7025 10.3924L14.7042 10.3919L14.5935 9.97791ZM16.6772 9.42077L16.7879 9.83481L16.7917 9.83376L16.6772 9.42077ZM16.9172 8.9982L17.3365 8.90961L17.3337 8.89627L17.33 8.88313L16.9172 8.9982ZM16.8567 8.87955L17.1923 8.61296L16.8567 8.87955ZM16.495 8.76762L16.6067 9.1814L16.6141 9.17941L16.6213 9.17716L16.495 8.76762ZM14.4302 9.32477L14.541 9.73878L14.5418 9.73854L14.4302 9.32477ZM14.1803 9.73791L14.6015 9.65727L14.5984 9.64375L14.1803 9.73791ZM3.59676 20.8401L3.29851 21.1478L3.29866 21.148L3.59676 20.8401ZM5.81548 20.8306L5.50549 20.5347L5.50516 20.535L5.81548 20.8306ZM5.82491 18.5832L6.12317 18.2754L6.12073 18.2731L5.82491 18.5832ZM3.57748 18.5931L3.88532 18.8912L3.88746 18.889L3.57748 18.5931ZM2.00248 22.4155L1.69947 22.7186C2.56803 23.5869 3.62471 24.0156 4.7172 23.9719C5.80523 23.9284 6.88208 23.4186 7.80755 22.4982L7.50534 22.1943L7.20312 21.8905C6.40016 22.689 5.51801 23.0821 4.68294 23.1155C3.85232 23.1487 3.02178 22.8285 2.30548 22.1124L2.00248 22.4155ZM7.50534 22.1943L7.80835 22.4974C8.83329 21.4727 9.8449 19.9457 10.9145 18.3823C11.9974 16.7994 13.1561 15.1523 14.5026 13.806L14.1996 13.5029L13.8966 13.1998C12.4866 14.6096 11.2874 16.3191 10.2071 17.8983C9.11334 19.497 8.1561 20.9377 7.20232 21.8913L7.50534 22.1943ZM14.1996 13.5029L14.5027 13.806C15.4438 12.8649 16.4158 12.8474 17.6913 12.7452C18.9743 12.6423 20.437 12.4431 22.0158 10.9311L21.7193 10.6216L21.4229 10.3121C20.0535 11.6236 18.8271 11.7942 17.6228 11.8908C16.4108 11.9879 15.097 11.9994 13.8966 13.1999L14.1996 13.5029ZM21.7193 10.6216L22.0147 10.9322C22.6491 10.3288 23.1424 9.59388 23.4464 8.84705C23.7484 8.10482 23.8754 7.32004 23.7335 6.62706L23.3136 6.71305L22.8938 6.79905C22.9918 7.27778 22.9122 7.88565 22.6525 8.52395C22.3945 9.15766 21.9707 9.79114 21.424 10.3111L21.7193 10.6216ZM23.3136 6.71305L23.2006 6.29966L19.5127 7.30809L19.6258 7.72148L19.7388 8.13488L23.4267 7.12645L23.3136 6.71305ZM19.6258 7.72148L19.516 7.30721C19.3291 7.35673 19.2028 7.31962 19.1027 7.24342C18.9875 7.15574 18.8688 6.98443 18.789 6.70905L18.3773 6.82834L17.9657 6.94762C18.0779 7.33482 18.2761 7.69151 18.5835 7.92547C18.906 8.17091 19.3078 8.24909 19.7355 8.13576L19.6258 7.72148ZM18.3773 6.82834L18.7893 6.71007L18.5107 5.73979L18.0988 5.85805L17.6868 5.97632L17.9654 6.94661L18.3773 6.82834ZM18.0988 5.85805L18.5104 5.73877C18.435 5.47847 18.4554 5.28322 18.5129 5.15699C18.5654 5.04152 18.6672 4.94121 18.8613 4.88974L18.7515 4.47548L18.6416 4.06123C18.2216 4.17261 17.901 4.4323 17.7328 4.80176C17.5694 5.16046 17.5706 5.57507 17.6871 5.97734L18.0988 5.85805ZM18.7515 4.47548L18.8638 4.88907L22.5422 3.89007L22.4299 3.47648L22.3176 3.06289L18.6392 4.06189L18.7515 4.47548ZM22.4299 3.47648L22.8388 3.34818C22.704 2.91853 22.3334 2.3998 21.9201 1.97661L21.6135 2.27605L21.3069 2.57549C21.6813 2.95888 21.9449 3.36244 22.021 3.60479L22.4299 3.47648ZM21.6135 2.27605L21.9204 1.97693C19.5174 -0.488723 15.5422 -0.18829 13.261 1.73727L13.5375 2.06477L13.8139 2.39226C15.8159 0.702397 19.273 0.488544 21.3066 2.57517L21.6135 2.27605ZM13.5375 2.06477L13.242 1.75435C11.5225 3.39108 11.3171 5.09416 11.2578 6.58307C11.1972 8.10452 11.2587 9.22085 10.3531 10.1266L10.6562 10.4296L10.9593 10.7326C12.1567 9.53497 12.0596 7.99116 12.1143 6.61718C12.1703 5.21067 12.354 3.78303 13.833 2.37519L13.5375 2.06477ZM10.6562 10.4296L10.3531 10.1266C9.13249 11.3472 7.54745 12.452 5.99168 13.5152C4.45641 14.5645 2.93051 15.5849 1.91042 16.6099L2.21419 16.9122L2.51796 17.2145C3.46673 16.2612 4.90847 15.2937 6.47531 14.2229C8.02165 13.1661 9.67318 12.0187 10.9592 10.7327L10.6562 10.4296ZM2.21419 16.9122L1.91198 16.6083C0.985655 17.5296 0.475201 18.6051 0.43442 19.6944C0.393494 20.7875 0.827853 21.8459 1.69982 22.7181L2.00291 22.4151L2.30599 22.112C1.5841 21.39 1.25989 20.5564 1.29096 19.7264C1.32218 18.8926 1.7143 18.0138 2.51641 17.2161L2.21419 16.9122ZM2.91576 21.4928L3.22159 21.1925C2.78109 20.7438 2.59161 20.2224 2.61846 19.7035C2.64554 19.1802 2.89536 18.6188 3.40913 18.1092L3.10733 17.8049L2.80554 17.5006C2.16688 18.1341 1.80235 18.8884 1.76246 19.6592C1.72235 20.4343 2.01329 21.1853 2.60994 21.793L2.91576 21.4928ZM3.10733 17.8049L3.40959 18.1087C4.36921 17.1541 5.87755 16.1328 7.47683 15.0387C9.05321 13.9603 10.7094 12.8163 11.8811 11.6447L11.578 11.3416L11.275 11.0386C10.1705 12.1431 8.58567 13.2416 6.99287 14.3312C5.42297 15.4052 3.83403 16.4774 2.80508 17.5011L3.10733 17.8049ZM11.578 11.3416L11.8811 11.6447C13.2599 10.2659 13.2126 8.68913 13.2466 7.28837C13.2808 5.87961 13.382 4.56416 14.7596 3.29157L14.4688 2.97677L14.178 2.66196C12.5302 4.18409 12.4251 5.81207 12.3897 7.26756C12.3542 8.73105 12.3742 9.9394 11.275 11.0386L11.578 11.3416ZM14.4688 2.97677L14.7597 3.29146C16.1255 2.02875 18.5139 1.91992 20.1241 3.15368L20.3848 2.81348L20.6454 2.47329C18.7217 0.999327 15.866 1.10136 14.1778 2.66208L14.4688 2.97677ZM20.3848 2.81348L20.2754 2.39909L18.3833 2.89838L18.4926 3.31277L18.602 3.72716L20.4941 3.22787L20.3848 2.81348ZM18.4926 3.31277L18.3846 2.89803C17.5987 3.10267 16.9824 3.52164 16.6365 4.14429C16.2913 4.7657 16.2524 5.52313 16.4867 6.33248L16.8983 6.21334L17.31 6.0942C17.1217 5.44341 17.1788 4.93312 17.3858 4.56056C17.5921 4.18925 17.9843 3.888 18.6006 3.72751L18.4926 3.31277ZM16.8983 6.21334L16.4866 6.33215L16.7553 7.26344L17.167 7.14462L17.5788 7.02581L17.3101 6.09453L16.8983 6.21334ZM17.167 7.14462L16.7536 7.25738L17.8194 11.1659L18.2329 11.0532L18.6464 10.9404L17.5805 7.03187L17.167 7.14462ZM18.2329 11.0532L18.1713 10.6291C17.7767 10.6864 17.3784 10.7123 16.9538 10.7443C16.5359 10.7757 16.0969 10.8128 15.6553 10.8949C14.7573 11.062 13.8471 11.4155 12.9765 12.2758L13.2778 12.5806L13.579 12.8855C14.3023 12.1707 15.0438 11.8805 15.812 11.7376C16.2034 11.6648 16.6012 11.6304 17.0181 11.599C17.4285 11.5681 17.8632 11.54 18.2945 11.4773L18.2329 11.0532ZM13.2778 12.5806L12.9747 12.2776C11.693 13.5591 10.5018 15.2762 9.40007 16.8912C8.28321 18.5282 7.26762 20.0446 6.30879 21.0084L6.61262 21.3106L6.91645 21.6129C7.94534 20.5787 9.01367 18.9784 10.1081 17.3742C11.2177 15.7479 12.3653 14.099 13.5808 12.8837L13.2778 12.5806ZM6.61262 21.3106L6.30841 21.0087C5.7881 21.5331 5.21944 21.7866 4.69548 21.8127C4.17714 21.8386 3.66069 21.6448 3.22212 21.194L2.91491 21.4928L2.60769 21.7916C3.20627 22.407 3.95753 22.7078 4.73819 22.6688C5.51323 22.6301 6.27485 22.2595 6.91683 21.6125L6.61262 21.3106ZM14.0835 7.86505L14.1933 8.27933L16.2585 7.73204L16.1488 7.31777L16.039 6.9035L13.9737 7.45078L14.0835 7.86505ZM16.1488 7.31777L16.2577 7.73225C16.687 7.6194 16.9022 7.19213 16.8057 6.78619L16.3888 6.88534L15.9718 6.98449C15.9724 6.98694 15.9689 6.97191 15.9816 6.94937C15.9946 6.9261 16.0176 6.90913 16.0398 6.90328L16.1488 7.31777ZM16.3888 6.88534L16.8028 6.77464C16.7504 6.57863 16.6225 6.41136 16.447 6.30945L16.2317 6.68003L16.0165 7.05061C15.9959 7.03866 15.9809 7.01904 15.9747 6.99604L16.3888 6.88534ZM16.2317 6.68003L16.447 6.30945C16.2716 6.20754 16.0629 6.17927 15.8667 6.23084L15.9756 6.64534L16.0846 7.05983C16.0615 7.06588 16.0371 7.06257 16.0165 7.05061L16.2317 6.68003ZM15.9756 6.64534L15.8644 6.23144L13.7902 6.78858L13.9013 7.20248L14.0125 7.61638L16.0868 7.05924L15.9756 6.64534ZM13.9013 7.20248L13.7905 6.78849C13.5947 6.84091 13.4276 6.96868 13.3257 7.1439L13.6962 7.35934L14.0667 7.57478C14.0547 7.59534 14.0351 7.61033 14.0122 7.61647L13.9013 7.20248ZM13.6962 7.35934L13.3257 7.1439C13.2238 7.31911 13.1954 7.52753 13.2467 7.72363L13.6613 7.6152L14.076 7.50677C14.082 7.52977 14.0786 7.55422 14.0667 7.57478L13.6962 7.35934ZM13.6613 7.6152L13.2492 7.7327C13.3015 7.91621 13.4131 8.09245 13.5956 8.20338C13.7826 8.31708 13.9991 8.33462 14.2008 8.27727L14.0835 7.86505L13.9662 7.45284C13.9639 7.45349 13.972 7.45085 13.9882 7.45266C14.0049 7.45453 14.0236 7.46048 14.0409 7.47101C14.0771 7.49302 14.0786 7.51561 14.0735 7.49769L13.6613 7.6152ZM14.3436 8.92148L14.4539 9.33562L16.5089 8.78833L16.3986 8.3742L16.2883 7.96006L14.2333 8.50735L14.3436 8.92148ZM16.3986 8.3742L16.5027 8.78994C16.6046 8.76443 16.7002 8.71826 16.7835 8.65428L16.5226 8.31432L16.2616 7.97437C16.2714 7.96686 16.2826 7.96144 16.2946 7.95845L16.3986 8.3742ZM16.5226 8.31432L16.7835 8.65428C16.8669 8.59031 16.9362 8.50989 16.9872 8.41803L16.6124 8.21006L16.2377 8.00208C16.2437 7.99131 16.2518 7.98187 16.2616 7.97437L16.5226 8.31432ZM16.6124 8.21006L16.9872 8.41803C17.0382 8.32616 17.0697 8.2248 17.0799 8.12024L16.6534 8.07863L16.2268 8.03702C16.228 8.02476 16.2317 8.01286 16.2377 8.00208L16.6124 8.21006ZM16.6534 8.07863L17.0799 8.12024C17.0901 8.01568 17.0787 7.91013 17.0465 7.81014L16.6386 7.94177L16.2308 8.0734C16.227 8.06166 16.2256 8.04928 16.2268 8.03702L16.6534 8.07863ZM16.6386 7.94177L17.0533 7.83371C16.9395 7.39676 16.4979 7.20191 16.1325 7.2835L16.2259 7.70177L16.3193 8.12004C16.3005 8.12423 16.2848 8.12111 16.2712 8.11353C16.2546 8.10431 16.2325 8.08276 16.2239 8.04983L16.6386 7.94177ZM16.2259 7.70177L16.113 7.28834L14.0387 7.85491L14.1516 8.26834L14.2645 8.68177L16.3388 8.11519L16.2259 7.70177ZM14.1516 8.26834L14.063 7.84902C13.6224 7.94212 13.389 8.39162 13.4987 8.78638L13.9116 8.67163L14.3245 8.55687C14.3333 8.58834 14.327 8.61556 14.3158 8.63478C14.3036 8.65581 14.2779 8.67968 14.2402 8.68765L14.1516 8.26834ZM13.9116 8.67163L13.4995 8.78913C13.554 8.98038 13.6728 9.15514 13.8562 9.26303C14.0421 9.3724 14.2582 9.39137 14.4609 9.3337L14.3436 8.92148L14.2263 8.50927C14.225 8.50965 14.2321 8.50748 14.2458 8.50899C14.2598 8.51052 14.2757 8.51539 14.2908 8.52422C14.323 8.54318 14.3267 8.5643 14.3238 8.55412L13.9116 8.67163ZM19.8658 8.87348L19.9777 9.28718L21.9658 8.74932L21.8539 8.33563L21.742 7.92193L19.7538 8.45978L19.8658 8.87348ZM21.8539 8.33563L21.4597 8.16751C21.256 8.64516 20.9683 9.11346 20.5554 9.51789L20.8553 9.82405L21.1552 10.1302C21.6638 9.63207 22.0095 9.06324 22.2481 8.50374L21.8539 8.33563ZM20.8553 9.82405L20.5576 9.51581C20.0409 10.0149 19.5168 10.2958 18.9797 10.4491L19.0973 10.8612L19.215 11.2733C19.8882 11.0812 20.5358 10.7286 21.1531 10.1323L20.8553 9.82405ZM19.0973 10.8612L19.5106 10.7478L18.9732 8.78922L18.5599 8.90263L18.1466 9.01603L18.684 10.9746L19.0973 10.8612ZM18.5599 8.90263L18.4371 9.31322C18.9154 9.45628 19.4419 9.43742 19.9815 9.28614L19.8658 8.87348L19.7501 8.46082C19.3296 8.57869 18.9724 8.57868 18.6827 8.49203L18.5599 8.90263ZM14.5935 9.97791L14.7042 10.3919L16.7879 9.83479L16.6772 9.42077L16.5665 9.00674L14.4828 9.56388L14.5935 9.97791ZM16.6772 9.42077L16.7917 9.83376C17.2082 9.7183 17.4163 9.28707 17.3365 8.90961L16.9172 8.9982L16.4979 9.08678C16.4947 9.07158 16.4976 9.05952 16.503 9.04996C16.5086 9.0399 16.5262 9.01791 16.5627 9.00777L16.6772 9.42077ZM16.9172 8.9982L17.33 8.88313C17.3026 8.78478 17.2558 8.69291 17.1923 8.61296L16.8567 8.87955L16.5211 9.14614C16.5134 9.13641 16.5077 9.12523 16.5044 9.11326L16.9172 8.9982ZM16.8567 8.87955L17.1923 8.61296C17.1287 8.53301 17.0498 8.46661 16.9602 8.41766L16.7548 8.79379L16.5494 9.16991C16.5385 9.16396 16.5289 9.15588 16.5211 9.14614L16.8567 8.87955ZM16.7548 8.79379L16.9602 8.41766C16.8706 8.36872 16.7721 8.33823 16.6705 8.328L16.6276 8.75441L16.5846 9.18083C16.5723 9.17958 16.5603 9.17587 16.5494 9.16991L16.7548 8.79379ZM16.6276 8.75441L16.6705 8.328C16.5689 8.31777 16.4663 8.328 16.3687 8.35809L16.495 8.76762L16.6213 9.17716C16.6095 9.18083 16.597 9.18207 16.5846 9.18083L16.6276 8.75441ZM16.495 8.76762L16.3834 8.35385L14.3185 8.91099L14.4302 9.32477L14.5418 9.73854L16.6067 9.1814L16.495 8.76762ZM14.4302 9.32477L14.3194 8.91076C14.1255 8.96264 13.9592 9.08752 13.8554 9.25926L14.2221 9.48105L14.5888 9.70283C14.5781 9.72054 14.561 9.73343 14.541 9.73878L14.4302 9.32477ZM14.2221 9.48105L13.8554 9.25926C13.7515 9.431 13.7181 9.63627 13.7622 9.83207L14.1803 9.73791L14.5984 9.64375C14.603 9.66394 14.5995 9.68512 14.5888 9.70283L14.2221 9.48105ZM14.1803 9.73791L13.7594 9.81851C13.8549 10.3173 14.3361 10.4887 14.7025 10.3924L14.5935 9.97791L14.4845 9.56343C14.4878 9.56255 14.5073 9.55855 14.5364 9.57429C14.5518 9.58256 14.5677 9.59547 14.5806 9.61305C14.5938 9.63096 14.5994 9.64758 14.6013 9.65731L14.1803 9.73791ZM3.59676 20.8401L3.29866 21.148C4.06284 21.8878 5.37389 21.9156 6.1258 21.1262L5.81548 20.8306L5.50516 20.535C5.10421 20.956 4.34097 20.964 3.89486 20.5321L3.59676 20.8401ZM5.81548 20.8306L6.12546 21.1266C6.8756 20.3408 6.93438 19.0616 6.12316 18.2754L5.82491 18.5832L5.52665 18.891C5.96429 19.3151 5.96564 20.0527 5.50549 20.5347L5.81548 20.8306ZM5.82491 18.5832L6.12073 18.2731C5.34279 17.531 4.05205 17.4753 3.26749 18.2971L3.57748 18.5931L3.88746 18.889C4.31319 18.4431 5.05902 18.4449 5.52908 18.8933L5.82491 18.5832ZM3.57748 18.5931L3.26964 18.2949C2.51695 19.072 2.49718 20.3713 3.29851 21.1478L3.59676 20.8401L3.89502 20.5323C3.44834 20.0994 3.44743 19.3433 3.88531 18.8912L3.57748 18.5931Z" fill="#434C3E" mask="url(#path-1-inside-1_212_46)"/>
</svg>
