<svg width="32" height="32" viewBox="0 0 32 32" fill="none" xmlns="http://www.w3.org/2000/svg">
<path d="M16 2.6665L8.66667 14.6665H23.3333L16 2.6665ZM16 7.7865L18.5733 11.9998H13.4133L16 7.7865ZM23.3333 17.3332C20.0133 17.3332 17.3333 20.0132 17.3333 23.3332C17.3333 26.6532 20.0133 29.3332 23.3333 29.3332C26.6533 29.3332 29.3333 26.6532 29.3333 23.3332C29.3333 20.0132 26.6533 17.3332 23.3333 17.3332ZM23.3333 26.6665C22.4493 26.6665 21.6014 26.3153 20.9763 25.6902C20.3512 25.0651 20 24.2172 20 23.3332C20 22.4491 20.3512 21.6013 20.9763 20.9761C21.6014 20.351 22.4493 19.9998 23.3333 19.9998C24.2174 19.9998 25.0652 20.351 25.6904 20.9761C26.3155 21.6013 26.6667 22.4491 26.6667 23.3332C26.6667 24.2172 26.3155 25.0651 25.6904 25.6902C25.0652 26.3153 24.2174 26.6665 23.3333 26.6665ZM4 28.6665H14.6667V17.9998H4V28.6665ZM6.66667 20.6665H12V25.9998H6.66667V20.6665Z" fill="#24670E"/>
</svg>
