<svg width="24" height="24" viewBox="0 0 24 24" fill="none" xmlns="http://www.w3.org/2000/svg">
<path fill-rule="evenodd" clip-rule="evenodd" d="M17.1345 1.5C18.5575 1.5 19.9222 2.06529 20.9285 3.07152C21.9347 4.07774 22.5 5.44248 22.5 6.8655C22.5 7.2705 22.338 7.6605 22.05 7.9485L21.258 8.742L18.3015 11.6985L10.713 19.287C10.0847 19.915 9.28459 20.343 8.41349 20.517L4.45649 21.309C4.21426 21.3575 3.9638 21.3455 3.72734 21.274C3.49089 21.2024 3.27577 21.0736 3.10108 20.8989C2.9264 20.7242 2.79756 20.5091 2.72602 20.2726C2.65448 20.0362 2.64244 19.7857 2.69099 19.5435L3.48299 15.5865C3.65703 14.7154 4.08501 13.9153 4.71299 13.287L12.3015 5.6985L16.0515 1.9485C16.338 1.662 16.728 1.5 17.1345 1.5ZM13.6695 7.5135L6.30449 14.8785C5.99063 15.1924 5.77665 15.5922 5.68949 16.0275L5.11949 18.882L7.97249 18.312C8.40831 18.2251 8.80863 18.0111 9.12299 17.697L16.488 10.332C16.421 9.60669 16.1024 8.92767 15.5874 8.41262C15.0723 7.89757 14.3933 7.57895 13.668 7.512M18.315 8.499C17.7697 7.23472 16.762 6.22651 15.498 5.6805L17.418 3.7605C18.9105 3.8955 20.1 5.0865 20.235 6.5805L18.315 8.499Z" fill="#24670E"/>
</svg>
