<svg width="24" height="24" viewBox="0 0 24 24" fill="none" xmlns="http://www.w3.org/2000/svg">
<mask id="path-1-inside-1_614_1073" fill="white">
<path fill-rule="evenodd" clip-rule="evenodd" d="M17.1345 1.5C18.5575 1.5 19.9222 2.06529 20.9285 3.07152C21.9347 4.07774 22.5 5.44248 22.5 6.8655C22.5 7.2705 22.338 7.6605 22.05 7.9485L21.258 8.742L18.3015 11.6985L10.713 19.287C10.0847 19.915 9.28459 20.343 8.41349 20.517L4.45649 21.309C4.21426 21.3575 3.9638 21.3455 3.72734 21.274C3.49089 21.2024 3.27577 21.0736 3.10108 20.8989C2.9264 20.7242 2.79756 20.5091 2.72602 20.2726C2.65448 20.0362 2.64244 19.7857 2.69099 19.5435L3.48299 15.5865C3.65703 14.7154 4.08501 13.9153 4.71299 13.287L12.3015 5.6985L16.0515 1.9485C16.338 1.662 16.728 1.5 17.1345 1.5ZM13.6695 7.5135L6.30449 14.8785C5.99063 15.1924 5.77665 15.5922 5.68949 16.0275L5.11949 18.882L7.97249 18.312C8.40831 18.2251 8.80863 18.0111 9.12299 17.697L16.488 10.332C16.421 9.60669 16.1024 8.92767 15.5874 8.41262C15.0723 7.89757 14.3933 7.57895 13.668 7.512M18.315 8.499C17.7697 7.23472 16.762 6.22651 15.498 5.6805L17.418 3.7605C18.9105 3.8955 20.1 5.0865 20.235 6.5805L18.315 8.499Z"/>
</mask>
<path fill-rule="evenodd" clip-rule="evenodd" d="M17.1345 1.5C18.5575 1.5 19.9222 2.06529 20.9285 3.07152C21.9347 4.07774 22.5 5.44248 22.5 6.8655C22.5 7.2705 22.338 7.6605 22.05 7.9485L21.258 8.742L18.3015 11.6985L10.713 19.287C10.0847 19.915 9.28459 20.343 8.41349 20.517L4.45649 21.309C4.21426 21.3575 3.9638 21.3455 3.72734 21.274C3.49089 21.2024 3.27577 21.0736 3.10108 20.8989C2.9264 20.7242 2.79756 20.5091 2.72602 20.2726C2.65448 20.0362 2.64244 19.7857 2.69099 19.5435L3.48299 15.5865C3.65703 14.7154 4.08501 13.9153 4.71299 13.287L12.3015 5.6985L16.0515 1.9485C16.338 1.662 16.728 1.5 17.1345 1.5ZM13.6695 7.5135L6.30449 14.8785C5.99063 15.1924 5.77665 15.5922 5.68949 16.0275L5.11949 18.882L7.97249 18.312C8.40831 18.2251 8.80863 18.0111 9.12299 17.697L16.488 10.332C16.421 9.60669 16.1024 8.92767 15.5874 8.41262C15.0723 7.89757 14.3933 7.57895 13.668 7.512M18.315 8.499C17.7697 7.23472 16.762 6.22651 15.498 5.6805L17.418 3.7605C18.9105 3.8955 20.1 5.0865 20.235 6.5805L18.315 8.499Z" fill="#24670E"/>
<path d="M22.5 6.8655H21H22.5ZM22.05 7.9485L20.9893 6.88784L20.9883 6.88884L22.05 7.9485ZM21.258 8.742L22.3186 9.80266L22.3196 9.80166L21.258 8.742ZM10.713 19.287L11.7734 20.3479L11.7736 20.3477L10.713 19.287ZM8.41349 20.517L8.11959 19.0461L8.1191 19.0462L8.41349 20.517ZM4.45649 21.309L4.1621 19.8382L4.16174 19.8382L4.45649 21.309ZM2.69099 19.5435L4.16174 19.8382L4.16181 19.8379L2.69099 19.5435ZM3.48299 15.5865L4.95381 15.8809L4.95391 15.8804L3.48299 15.5865ZM4.71299 13.287L3.65233 12.2263L3.65206 12.2266L4.71299 13.287ZM12.3015 5.6985L13.3621 6.75916V6.75916L12.3015 5.6985ZM6.30449 14.8785L5.24383 13.8178L5.24368 13.818L6.30449 14.8785ZM5.68949 16.0275L4.21868 15.733L4.21853 15.7338L5.68949 16.0275ZM5.11949 18.882L3.64853 18.5883L3.20817 20.7935L5.41336 20.3529L5.11949 18.882ZM7.97249 18.312L7.67922 16.8409L7.67861 16.8411L7.97249 18.312ZM9.12299 17.697L10.1833 18.7581L10.1836 18.7577L9.12299 17.697ZM16.488 10.332L17.5486 11.3927L18.0463 10.895L17.9816 10.1941L16.488 10.332ZM18.315 8.499L16.9377 9.0931L17.8126 11.1215L19.3752 9.56007L18.315 8.499ZM15.498 5.6805L14.4373 4.61984L12.8755 6.18164L14.9032 7.05752L15.498 5.6805ZM17.418 3.7605L17.5531 2.2666L16.8538 2.20335L16.3573 2.69984L17.418 3.7605ZM20.235 6.5805L21.2952 7.64157L21.7921 7.14508L21.7289 6.44551L20.235 6.5805ZM17.1345 1.5V3C18.1597 3 19.1429 3.40726 19.8678 4.13218L20.9285 3.07152L21.9891 2.01086C20.7016 0.723327 18.9553 0 17.1345 0V1.5ZM20.9285 3.07152L19.8678 4.13218C20.5927 4.8571 21 5.84031 21 6.8655H22.5H24C24 5.04466 23.2767 3.29839 21.9891 2.01086L20.9285 3.07152ZM22.5 6.8655H21C21 6.87034 20.9977 6.87949 20.9893 6.88784L22.05 7.9485L23.1106 9.00916C23.6783 8.44151 24 7.67066 24 6.8655L22.5 6.8655ZM22.05 7.9485L20.9883 6.88884L20.1963 7.68234L21.258 8.742L22.3196 9.80166L23.1116 9.00816L22.05 7.9485ZM21.258 8.742L20.1973 7.68134L17.2408 10.6378L18.3015 11.6985L19.3621 12.7592L22.3186 9.80266L21.258 8.742ZM18.3015 11.6985L17.2408 10.6378L9.65233 18.2263L10.713 19.287L11.7736 20.3477L19.3621 12.7592L18.3015 11.6985ZM10.713 19.287L9.65259 18.2261C9.23373 18.6447 8.70033 18.93 8.11959 19.0461L8.41349 20.517L8.70738 21.9879C9.86885 21.7559 10.9357 21.1852 11.7734 20.3479L10.713 19.287ZM8.41349 20.517L8.1191 19.0462L4.1621 19.8382L4.45649 21.309L4.75087 22.7798L8.70788 21.9878L8.41349 20.517ZM4.45649 21.309L4.16174 19.8382L4.16174 19.8382L3.72734 21.274L3.29295 22.7097C3.76585 22.8528 4.26678 22.8768 4.75123 22.7798L4.45649 21.309ZM3.72734 21.274L4.16174 19.8382V19.8382L3.10108 20.8989L2.04042 21.9596C2.38979 22.3089 2.82004 22.5666 3.29295 22.7097L3.72734 21.274ZM3.10108 20.8989L4.16174 19.8382H4.16174L2.72602 20.2726L1.2903 20.707C1.43338 21.18 1.69106 21.6102 2.04042 21.9596L3.10108 20.8989ZM2.72602 20.2726L4.16174 19.8382H4.16174L2.69099 19.5435L1.22023 19.2488C1.12314 19.7332 1.14721 20.2341 1.2903 20.707L2.72602 20.2726ZM2.69099 19.5435L4.16181 19.8379L4.95381 15.8809L3.48299 15.5865L2.01216 15.2921L1.22016 19.2491L2.69099 19.5435ZM3.48299 15.5865L4.95391 15.8804C5.06994 15.2997 5.35526 14.7663 5.77391 14.3474L4.71299 13.287L3.65206 12.2266C2.81475 13.0643 2.24412 14.1311 2.01206 15.2926L3.48299 15.5865ZM4.71299 13.287L5.77365 14.3477L13.3621 6.75916L12.3015 5.6985L11.2408 4.63784L3.65233 12.2263L4.71299 13.287ZM12.3015 5.6985L13.3621 6.75916L17.1121 3.00916L16.0515 1.9485L14.9908 0.88784L11.2408 4.63784L12.3015 5.6985ZM16.0515 1.9485L17.1121 3.00916C17.1146 3.00669 17.118 3.00429 17.1223 3.00251C17.1266 3.00074 17.1307 3 17.1345 3V1.5V0C16.3297 0 15.5583 0.320358 14.9908 0.88784L16.0515 1.9485ZM13.6695 7.5135L12.6088 6.45284L5.24383 13.8178L6.30449 14.8785L7.36515 15.9392L14.7301 8.57416L13.6695 7.5135ZM6.30449 14.8785L5.24368 13.818C4.72058 14.3412 4.36395 15.0075 4.21868 15.733L5.68949 16.0275L7.16029 16.322C7.18934 16.1769 7.26067 16.0437 7.36529 15.939L6.30449 14.8785ZM5.68949 16.0275L4.21853 15.7338L3.64853 18.5883L5.11949 18.882L6.59045 19.1757L7.16045 16.3212L5.68949 16.0275ZM5.11949 18.882L5.41336 20.3529L8.26636 19.7829L7.97249 18.312L7.67861 16.8411L4.82561 17.4111L5.11949 18.882ZM7.97249 18.312L8.26575 19.7831C8.99212 19.6382 9.65934 19.2816 10.1833 18.7581L9.12299 17.697L8.06272 16.6359C7.95793 16.7407 7.82449 16.812 7.67922 16.8409L7.97249 18.312ZM9.12299 17.697L10.1836 18.7577L17.5486 11.3927L16.488 10.332L15.4273 9.27134L8.06233 16.6363L9.12299 17.697ZM16.488 10.332L17.9816 10.1941C17.8825 9.12011 17.4107 8.11463 16.648 7.35196L15.5874 8.41262L14.5267 9.47328C14.7941 9.74071 14.9596 10.0933 14.9943 10.4699L16.488 10.332ZM15.5874 8.41262L16.648 7.35196C15.8854 6.58929 14.8799 6.11749 13.8059 6.01835L13.668 7.512L13.5301 9.00565C13.9067 9.04041 14.2593 9.20585 14.5267 9.47328L15.5874 8.41262ZM18.315 8.499L19.6923 7.9049C18.9955 6.28943 17.7079 5.00116 16.0928 4.30348L15.498 5.6805L14.9032 7.05752C15.816 7.45186 16.5438 8.18001 16.9377 9.0931L18.315 8.499ZM15.498 5.6805L16.5586 6.74116L18.4786 4.82116L17.418 3.7605L16.3573 2.69984L14.4373 4.61984L15.498 5.6805ZM17.418 3.7605L17.2829 5.2544C18.0523 5.324 18.6712 5.94187 18.7411 6.71549L20.235 6.5805L21.7289 6.44551C21.5288 4.23113 19.7687 2.467 17.5531 2.2666L17.418 3.7605ZM20.235 6.5805L19.1747 5.51943L17.2547 7.43793L18.315 8.499L19.3752 9.56007L21.2952 7.64157L20.235 6.5805Z" fill="#533A03" mask="url(#path-1-inside-1_614_1073)"/>
</svg>
