<svg width="25" height="25" viewBox="0 0 25 25" fill="none" xmlns="http://www.w3.org/2000/svg">
<path d="M6.5 19.5H12.5V18.5H6.5V19.5ZM7.25 10.5H11.75C11.95 10.5 12.125 10.425 12.275 10.275C12.425 10.125 12.5 9.95 12.5 9.75C12.5 9.55 12.425 9.375 12.275 9.225C12.125 9.075 11.95 9 11.75 9H7.25C7.05 9 6.875 9.075 6.725 9.225C6.575 9.375 6.5 9.55 6.5 9.75C6.5 9.95 6.575 10.125 6.725 10.275C6.875 10.425 7.05 10.5 7.25 10.5ZM7.25 8H11.75C11.95 8 12.125 7.925 12.275 7.775C12.425 7.625 12.5 7.45 12.5 7.25C12.5 7.05 12.425 6.875 12.275 6.725C12.125 6.575 11.95 6.5 11.75 6.5H7.25C7.05 6.5 6.875 6.575 6.725 6.725C6.575 6.875 6.5 7.05 6.5 7.25C6.5 7.45 6.575 7.625 6.725 7.775C6.875 7.925 7.05 8 7.25 8ZM16.5 11.5V9.5H18.5V7.5H16.5V5.5H18.5C19.05 5.5 19.521 5.696 19.913 6.088C20.305 6.48 20.5007 6.95067 20.5 7.5H22.5C22.7833 7.5 23.021 7.596 23.213 7.788C23.405 7.98 23.5007 8.21733 23.5 8.5C23.4993 8.78267 23.4033 9.02033 23.212 9.213C23.0207 9.40567 22.7833 9.50133 22.5 9.5H20.5C20.5 10.05 20.3043 10.521 19.913 10.913C19.5217 11.305 19.0507 11.5007 18.5 11.5H16.5ZM12.5 16.5H10.5V11.5H14.5V5.5H6.5C5.95 5.5 5.47933 5.696 5.088 6.088C4.69667 6.48 4.50067 6.95067 4.5 7.5V9.5C4.5 10.05 4.696 10.521 5.088 10.913C5.48 11.305 5.95067 11.5007 6.5 11.5H8.5V16.5H6.5V13.5C5.4 13.5 4.45833 13.1083 3.675 12.325C2.89167 11.5417 2.5 10.6 2.5 9.5V7.5C2.5 6.4 2.89167 5.45833 3.675 4.675C4.45833 3.89167 5.4 3.5 6.5 3.5H14.5C15.05 3.5 15.521 3.696 15.913 4.088C16.305 4.48 16.5007 4.95067 16.5 5.5V11.5C16.5 12.05 16.3043 12.521 15.913 12.913C15.5217 13.305 15.0507 13.5007 14.5 13.5H12.5V16.5ZM6 21.5C5.58333 21.5 5.22933 21.3543 4.938 21.063C4.64667 20.7717 4.50067 20.4173 4.5 20V18C4.5 17.5833 4.646 17.2293 4.938 16.938C5.23 16.6467 5.584 16.5007 6 16.5H13C13.4167 16.5 13.771 16.646 14.063 16.938C14.355 17.23 14.5007 17.584 14.5 18V20C14.5 20.4167 14.3543 20.771 14.063 21.063C13.7717 21.355 13.4173 21.5007 13 21.5H6Z" fill="#63715B"/>
</svg>
