<svg width="25" height="25" viewBox="0 0 25 25" fill="none" xmlns="http://www.w3.org/2000/svg">
<path d="M15.5995 2.31006L12.7695 5.14006C11.9995 5.92006 11.9995 7.19006 12.7695 7.97006L14.1795 9.38006L9.62953 13.9301L6.80953 11.1001L5.38953 12.5001C0.439526 17.5001 3.99953 21.0001 3.99953 21.0001C3.99953 21.0001 7.49953 24.5001 12.4995 19.5901L13.9095 18.1801L11.1095 15.3801L15.6495 10.8401L17.0395 12.2301C17.8195 13.0001 19.0895 13.0001 19.8695 12.2301L22.6995 9.40006L15.5995 2.31006ZM18.4295 10.7801L17.0495 9.40006L15.6095 7.96006L14.2095 6.56006L15.6195 5.15006L19.8495 9.38006L18.4295 10.7801Z" fill="#63715B"/>
</svg>
