<?xml version="1.0" encoding="utf-8"?>
<!-- Generator: Adobe Illustrator 27.5.0, SVG Export Plug-In . SVG Version: 6.00 Build 0)  -->
<svg version="1.1" id="Layer_1" xmlns="http://www.w3.org/2000/svg" xmlns:xlink="http://www.w3.org/1999/xlink" x="0px" y="0px"
	 viewBox="0 0 6000 6000" style="enable-background:new 0 0 6000 6000;" xml:space="preserve">
<rect style="fill-rule:evenodd;clip-rule:evenodd;fill:#FFFFFF;" width="6000" height="6000"/>
<path style="fill-rule:evenodd;clip-rule:evenodd;fill:#35383B;" d="M2739.162,2632.168h-637.163
	c-0.516,12.5-0.776,25.066-0.776,37.693c0,12.628,0.26,25.193,0.776,37.693h637.163c-18.38,121.571-124.154,215.733-250.591,215.733
	h-158.376h-192.748c7.515,25.622,16.143,50.768,25.824,75.385h325.301c168.103,0,307.769-127.854,326.62-291.118h147.117v147.117
	c-163.265,18.85-291.118,158.517-291.118,326.62v325.302c24.617,9.681,49.764,18.307,75.385,25.823v-192.748v-158.376
	c0-126.437,94.162-232.211,215.733-250.591v637.163c12.5,0.516,25.065,0.776,37.692,0.776s25.193-0.26,37.693-0.776v-637.163
	c121.568,18.382,215.732,124.155,215.732,250.591v158.376v192.748c25.622-7.515,50.768-16.142,75.385-25.823v-325.302
	c0-168.103-127.854-307.768-291.117-326.62v-147.117h147.117c18.85,163.265,158.517,291.118,326.619,291.118h325.301
	c9.681-24.617,18.307-49.763,25.824-75.385h-192.748H3511.43c-126.437,0-232.211-94.162-250.591-215.733h637.163
	c0.516-12.5,0.776-25.065,0.776-37.693c0-12.627-0.26-25.193-0.776-37.693h-637.163c18.381-121.568,124.155-215.731,250.591-215.731
	h158.376h192.748c-7.517-25.622-16.143-50.769-25.824-75.385H3511.43c-168.103,0-307.768,127.853-326.619,291.116h-147.117v-147.115
	c163.264-18.853,291.117-158.518,291.117-326.621v-325.3c-24.617-9.682-49.763-18.307-75.385-25.823v192.748v158.376
	c0,126.436-94.164,232.209-215.732,250.591V1771.86c-12.5-0.516-25.065-0.776-37.693-0.776s-25.193,0.26-37.692,0.776v637.163
	c-121.571-18.381-215.733-124.154-215.733-250.591v-158.376v-192.748c-25.622,7.516-50.769,16.142-75.385,25.823v325.3
	c0,168.103,127.853,307.77,291.118,326.621v147.115h-147.117c-18.851-163.264-158.517-291.116-326.62-291.116h-325.301
	c-9.681,24.616-18.308,49.763-25.824,75.385h192.748h158.376C2615.007,2416.437,2720.781,2510.6,2739.162,2632.168"/>
<g>
	<g>
		<text transform="matrix(1 0 0 1 1796.1475 4021.2598)" style="fill:#35383B; font-family:'Nexa-Heavy'; font-size:326.0542px;">L</text>
	</g>
</g>
<g>
	<g>
		<text transform="matrix(1 0 0 1 1998.9736 4021.2598)" style="fill:#35383B; font-family:'Nexa-Heavy'; font-size:326.0542px;">O</text>
	</g>
</g>
<g>
	<g>
		<text transform="matrix(1 0 0 1 2276.1396 4021.2598)" style="fill:#35383B; font-family:'Nexa-Heavy'; font-size:326.0542px;">R</text>
	</g>
</g>
<g>
	<g>
		<text transform="matrix(1 0 0 1 2520.0518 4021.2598)" style="fill:#35383B; font-family:'Nexa-Heavy'; font-size:326.0542px;">E</text>
	</g>
</g>
<g>
	<g>
		<text transform="matrix(1 0 0 1 2745.0508 4021.2598)" style="fill:#35383B; font-family:'Nexa-Heavy'; font-size:326.0542px;">M </text>
	</g>
</g>
<g>
	<g>
		
			<text transform="matrix(1 0 0 1 3130.5322 4021.2598)" style="fill:#35383B; font-family:'Nexa-ExtraLight'; font-size:326.0542px;">I</text>
	</g>
</g>
<g>
	<g>
		
			<text transform="matrix(1 0 0 1 3219.6953 4021.2598)" style="fill:#35383B; font-family:'Nexa-ExtraLight'; font-size:326.0542px;">P</text>
	</g>
</g>
<g>
	<g>
		
			<text transform="matrix(1 0 0 1 3446.4492 4021.2598)" style="fill:#35383B; font-family:'Nexa-ExtraLight'; font-size:326.0542px;">S</text>
	</g>
</g>
<g>
	<g>
		
			<text transform="matrix(1 0 0 1 3668.9717 4021.2598)" style="fill:#35383B; font-family:'Nexa-ExtraLight'; font-size:326.0542px;">U</text>
	</g>
</g>
<g>
	<g>
		
			<text transform="matrix(1 0 0 1 3916.5967 4021.2598)" style="fill:#35383B; font-family:'Nexa-ExtraLight'; font-size:326.0542px;">M</text>
	</g>
</g>
<g>
	<g>
		<text transform="matrix(1 0 0 1 2208.042 4226.3691)" style="fill:#35383B; font-family:'Nexa-Heavy'; font-size:149.65px;">S</text>
	</g>
</g>
<g>
	<g>
		<text transform="matrix(1 0 0 1 2362.7842 4226.3691)" style="fill:#35383B; font-family:'Nexa-Heavy'; font-size:149.65px;">L</text>
	</g>
</g>
<g>
	<g>
		<text transform="matrix(1 0 0 1 2508.3975 4226.3691)" style="fill:#35383B; font-family:'Nexa-Heavy'; font-size:149.65px;">O</text>
	</g>
</g>
<g>
	<g>
		<text transform="matrix(1 0 0 1 2688.1318 4226.3691)" style="fill:#35383B; font-family:'Nexa-Heavy'; font-size:149.65px;">G</text>
	</g>
</g>
<g>
	<g>
		<text transform="matrix(1 0 0 1 2855.1436 4226.3691)" style="fill:#35383B; font-family:'Nexa-Heavy'; font-size:149.65px;">A</text>
	</g>
</g>
<g>
	<g>
		<text transform="matrix(1 0 0 1 3029.0381 4226.3691)" style="fill:#35383B; font-family:'Nexa-Heavy'; font-size:149.65px;">N</text>
	</g>
</g>
<g>
	<g>
		<text transform="matrix(1 0 0 1 3201.4395 4226.3691)" style="fill:#35383B; font-family:'Nexa-Heavy'; font-size:149.65px;">H</text>
	</g>
</g>
<g>
	<g>
		<text transform="matrix(1 0 0 1 3373.835 4226.3691)" style="fill:#35383B; font-family:'Nexa-Heavy'; font-size:149.65px;">E</text>
	</g>
</g>
<g>
	<g>
		<text transform="matrix(1 0 0 1 3529.623 4226.3691)" style="fill:#35383B; font-family:'Nexa-Heavy'; font-size:149.65px;">R</text>
	</g>
</g>
<g>
	<g>
		<text transform="matrix(1 0 0 1 3694.0938 4226.3691)" style="fill:#35383B; font-family:'Nexa-Heavy'; font-size:149.65px;">E</text>
	</g>
</g>
</svg>
