<svg width="24" height="24" viewBox="0 0 24 24" fill="none" xmlns="http://www.w3.org/2000/svg">
<path fill-rule="evenodd" clip-rule="evenodd" d="M5 1C3.93913 1 2.92172 1.42143 2.17157 2.17157C1.42143 2.92172 1 3.93913 1 5V19C1 20.0609 1.42143 21.0783 2.17157 21.8284C2.92172 22.5786 3.93913 23 5 23H19C20.0609 23 21.0783 22.5786 21.8284 21.8284C22.5786 21.0783 23 20.0609 23 19V5C23 3.93913 22.5786 2.92172 21.8284 2.17157C21.0783 1.42143 20.0609 1 19 1H5ZM5.962 9.455H4L5.455 10.182L6.545 14.546H8L9.818 9.455H8.364L7.273 12.727L6.672 10.024C6.63574 9.8626 6.54575 9.7183 6.41675 9.61475C6.28776 9.51119 6.12742 9.45551 5.962 9.455ZM11.636 9.455H10.546L9.818 14.545H10.909L11.636 9.455ZM15.605 9.666C15.362 9.546 14.766 9.455 14.184 9.455C13.456 9.455 12.309 9.897 12.309 10.989C12.309 11.853 12.917 12.169 13.421 12.433C13.78 12.62 14.086 12.78 14.086 13.09C14.086 13.297 13.732 13.539 13.253 13.539C12.773 13.539 12.174 13.372 11.957 13.297L11.787 14.334C12.029 14.455 12.74 14.546 13.322 14.546C14.05 14.546 15.434 14.086 15.434 12.995C15.434 12.053 14.704 11.665 14.169 11.382C13.862 11.219 13.619 11.09 13.619 10.91C13.619 10.78 13.756 10.478 14.235 10.478C14.714 10.478 15.213 10.583 15.434 10.703L15.605 9.666ZM16.727 14.546H15.273L17.454 9.455H18.909L20 14.545H18.804L18.642 13.818H16.976L16.727 14.546ZM17.332 12.726H18.408L18.012 10.888L17.332 12.726Z" fill="black"/>
</svg>
