<svg width="24" height="25" viewBox="0 0 24 25" fill="none" xmlns="http://www.w3.org/2000/svg">
<path d="M18.9 21.5001L13.425 16.0251L15.525 13.9251L21 19.4001L18.9 21.5001ZM5.1 21.5001L3 19.4001L9.9 12.5001L8.2 10.8001L7.5 11.5001L6.225 10.2251V12.2751L5.525 12.9751L2.5 9.9501L3.2 9.2501H5.25L4 8.0001L7.55 4.4501C7.88333 4.11677 8.24167 3.8751 8.625 3.7251C9.00833 3.5751 9.4 3.5001 9.8 3.5001C10.2 3.5001 10.5917 3.5751 10.975 3.7251C11.3583 3.8751 11.7167 4.11677 12.05 4.4501L9.75 6.7501L11 8.0001L10.3 8.7001L12 10.4001L14.25 8.1501C14.1833 7.96677 14.1293 7.7751 14.088 7.5751C14.0467 7.3751 14.0257 7.1751 14.025 6.9751C14.025 5.99177 14.3627 5.16243 15.038 4.4871C15.7133 3.81177 16.5423 3.47443 17.525 3.4751C17.775 3.4751 18.0127 3.5001 18.238 3.5501C18.4633 3.6001 18.6923 3.6751 18.925 3.7751L16.45 6.2501L18.25 8.0501L20.725 5.5751C20.8417 5.80843 20.921 6.03743 20.963 6.2621C21.005 6.48677 21.0257 6.72443 21.025 6.9751C21.025 7.95843 20.6877 8.78777 20.013 9.4631C19.3383 10.1384 18.509 10.4758 17.525 10.4751C17.325 10.4751 17.125 10.4584 16.925 10.4251C16.725 10.3918 16.5333 10.3334 16.35 10.2501L5.1 21.5001Z" fill="#63715B"/>
</svg>
