<svg width="25" height="25" viewBox="0 0 25 25" fill="none" xmlns="http://www.w3.org/2000/svg">
<path d="M18.416 6.47C19.3701 7.44962 20.0655 8.6512 20.4395 9.9665H23V14.468H20.4395C20.0659 15.7844 19.3705 16.987 18.416 17.9675L19.6985 20.1875L15.8015 22.4375L14.522 20.2175C13.1953 20.5521 11.8062 20.5521 10.4795 20.2175L9.1985 22.4375L5.3015 20.1875L6.584 17.9675C5.62949 16.987 4.93408 15.7844 4.5605 14.468H2V9.968H4.5605C4.93408 8.65163 5.62949 7.44897 6.584 6.4685L5.3 4.25L9.1955 2H9.2L10.481 4.217C11.8077 3.88238 13.1968 3.88238 14.5235 4.217L15.8 2H15.803L19.7 4.25L18.4175 6.47H18.416ZM17 12.218C17 11.0245 16.5259 9.87993 15.682 9.03602C14.8381 8.19211 13.6935 7.718 12.5 7.718C11.3065 7.718 10.1619 8.19211 9.31802 9.03602C8.47411 9.87993 8 11.0245 8 12.218C8 13.4115 8.47411 14.5561 9.31802 15.4C10.1619 16.2439 11.3065 16.718 12.5 16.718C13.6935 16.718 14.8381 16.2439 15.682 15.4C16.5259 14.5561 17 13.4115 17 12.218Z" fill="#63715B"/>
</svg>
