<svg width="25" height="24" viewBox="0 0 25 24" fill="none" xmlns="http://www.w3.org/2000/svg">
<path d="M12.5 4.5C12.8978 4.5 13.2792 4.65815 13.5605 4.93945C13.8419 5.22076 14 5.60218 14 6V10.5H18.5C18.8978 10.5 19.2792 10.6581 19.5605 10.9395C19.8419 11.2208 20 11.6022 20 12C20 12.3978 19.8419 12.7792 19.5605 13.0605C19.2797 13.3414 18.8991 13.4985 18.502 13.499L14.5088 13.4287L14 13.4199V18C14 18.3978 13.8419 18.7792 13.5605 19.0605C13.2792 19.3419 12.8978 19.5 12.5 19.5C12.1022 19.5 11.7208 19.3419 11.4395 19.0605C11.1602 18.7813 11.0023 18.4034 11 18.0088L11.0713 13.9375L11.0801 13.4199L10.5625 13.4287L6.49707 13.499C6.1003 13.4982 5.72007 13.3412 5.43945 13.0605C5.15815 12.7792 5 12.3978 5 12L5.00781 11.8516C5.04195 11.5083 5.19337 11.1855 5.43945 10.9395C5.72076 10.6581 6.10218 10.5 6.5 10.5H11.0801L11.0713 9.99121L11 6C11 5.60218 11.1581 5.22076 11.4395 4.93945C11.6855 4.69337 12.0083 4.54195 12.3516 4.50781L12.5 4.5Z" fill="#533A03" stroke="#533A03"/>
</svg>
