<svg width="24" height="24" viewBox="0 0 24 24" fill="none" xmlns="http://www.w3.org/2000/svg">
<path fill-rule="evenodd" clip-rule="evenodd" d="M14.856 12.0946C15.0415 12.0321 15.2375 11.9996 15.435 11.9996H15.991C16.0081 11.9996 16.025 11.9961 16.0407 11.9893C16.0564 11.9826 16.0706 11.9726 16.0823 11.9602C16.094 11.9477 16.1031 11.933 16.1088 11.9169C16.1146 11.9008 16.1171 11.8836 16.116 11.8666L15.891 8.60756C15.8875 8.5446 15.8593 8.48555 15.8127 8.44316C15.766 8.40078 15.7045 8.37847 15.6415 8.38106C13.5085 8.48906 11.7945 10.0741 11.663 12.2481L11.6455 12.5376C11.6431 12.5766 11.65 12.6156 11.6654 12.6514C11.6809 12.6873 11.7045 12.7191 11.7345 12.7441C11.7644 12.7692 11.7998 12.7869 11.8379 12.7959C11.8759 12.8048 11.9155 12.8047 11.9535 12.7956L14.856 12.0946ZM14.95 9.49806C13.91 9.78406 13.105 10.5476 12.7945 11.5636L14.5835 11.1316C14.7378 11.0826 14.8951 11.0472 15.0555 11.0256L14.95 9.49806Z" fill="#24670E"/>
<path fill-rule="evenodd" clip-rule="evenodd" d="M5.24988 3C4.94988 2.9999 4.6549 3.07693 4.39325 3.22368C4.1316 3.37044 3.91206 3.58199 3.75573 3.83803C3.59939 4.09407 3.5115 4.386 3.5005 4.6858C3.48949 4.98559 3.55574 5.28319 3.69288 5.55L3.11288 12.188L3.11088 12.22L3.06988 13.38C3.04829 13.9911 3.25714 14.5879 3.65502 15.0522C4.05289 15.5165 4.61072 15.8143 5.21788 15.8865L5.30788 15.8975C5.78168 15.9537 6.26154 15.8697 6.68811 15.656C7.11467 15.4422 7.46922 15.1081 7.70788 14.695L8.80538 12.792C9.05288 12.3635 8.66638 11.8475 8.18538 11.9645L7.34488 12.1685L6.07088 12.086L5.53788 12.0225L6.38388 6.4115C7.29138 6.6925 8.18738 6.9905 8.96038 7.4125C9.70788 7.821 10.3044 8.327 10.6689 9.0115C10.0063 9.93631 9.62161 11.031 9.55988 12.167L9.40438 14.972C9.40057 15.0399 9.41065 15.1079 9.43401 15.1717C9.45736 15.2356 9.4935 15.294 9.5402 15.3434C9.58691 15.3929 9.64321 15.4322 9.70565 15.4592C9.7681 15.4861 9.83538 15.5 9.90338 15.5H20.7284C20.7629 15.5 20.7971 15.4928 20.8287 15.4789C20.8604 15.465 20.8888 15.4447 20.9122 15.4193C20.9356 15.3939 20.9534 15.3639 20.9647 15.3312C20.9759 15.2986 20.9802 15.2639 20.9774 15.2295L20.6824 11.6875C20.6667 11.5 20.5812 11.3253 20.4427 11.198C20.3042 11.0706 20.123 11 19.9349 11H18.0219C18.0158 11.0001 18.0099 10.9979 18.0053 10.994C18.0007 10.99 17.9977 10.9845 17.9969 10.9785L17.4949 7.3625C17.4617 7.1234 17.3431 6.90437 17.1611 6.74585C16.979 6.58732 16.7458 6.5 16.5044 6.5H15.5509C14.6712 6.49962 13.8022 6.69267 13.0054 7.0655C11.5484 4.8615 8.99938 4.2405 6.68088 3.7425C6.51935 3.51309 6.30502 3.32587 6.05597 3.19665C5.80693 3.06743 5.53046 2.99998 5.24988 3ZM4.49988 4.75C4.49988 4.55109 4.5789 4.36032 4.71955 4.21967C4.8602 4.07902 5.05097 4 5.24988 4C5.44879 4 5.63956 4.07902 5.78021 4.21967C5.92086 4.36032 5.99988 4.55109 5.99988 4.75C5.99988 4.94891 5.92086 5.13968 5.78021 5.28033C5.63956 5.42098 5.44879 5.5 5.24988 5.5C5.05097 5.5 4.8602 5.42098 4.71955 5.28033C4.5789 5.13968 4.49988 4.94891 4.49988 4.75ZM5.48838 6.484C5.1522 6.52914 4.81013 6.47672 4.50288 6.333L3.98538 12.2515L3.94438 13.411C3.9306 13.8027 4.06452 14.1852 4.31958 14.4828C4.57463 14.7804 4.9322 14.9712 5.32138 15.0175L5.41138 15.0285C5.71506 15.0644 6.0226 15.0106 6.29602 14.8737C6.56944 14.7367 6.79676 14.5227 6.94988 14.258L7.68288 12.987L7.50488 13.03C7.44955 13.0433 7.39321 13.0483 7.33588 13.045L5.99088 12.9575L5.11438 12.853C5.03953 12.8441 4.96723 12.8203 4.90177 12.7829C4.83631 12.7456 4.77902 12.6955 4.73332 12.6355C4.68761 12.5756 4.65441 12.5071 4.6357 12.4341C4.61699 12.3611 4.61314 12.285 4.62438 12.2105L5.48838 6.484ZM9.43988 6.535C8.62338 6.089 7.69938 5.7745 6.82988 5.503C6.92688 5.2995 6.98638 5.0745 6.99788 4.837C9.12488 5.318 11.0159 5.916 12.1369 7.5655C11.8587 7.75808 11.5972 7.97385 11.3554 8.2105C10.8719 7.476 10.1874 6.9435 9.43988 6.5355M10.5584 12.223C10.6292 10.9468 11.1861 9.74618 12.1146 8.86779C13.0431 7.9894 14.2727 7.49995 15.5509 7.5H16.5044L17.0064 11.116C17.0404 11.361 17.1619 11.5855 17.3485 11.7479C17.535 11.9104 17.774 11.9999 18.0214 12H19.7049L19.9134 14.5H10.4319L10.5584 12.223Z" fill="#24670E"/>
<path d="M11.75 19.5C11.9489 19.5 12.1397 19.421 12.2803 19.2803C12.421 19.1397 12.5 18.9489 12.5 18.75C12.5 18.5511 12.421 18.3603 12.2803 18.2197C12.1397 18.079 11.9489 18 11.75 18C11.5511 18 11.3603 18.079 11.2197 18.2197C11.079 18.3603 11 18.5511 11 18.75C11 18.9489 11.079 19.1397 11.2197 19.2803C11.3603 19.421 11.5511 19.5 11.75 19.5ZM15.5 18.75C15.5 18.9489 15.421 19.1397 15.2803 19.2803C15.1397 19.421 14.9489 19.5 14.75 19.5C14.5511 19.5 14.3603 19.421 14.2197 19.2803C14.079 19.1397 14 18.9489 14 18.75C14 18.5511 14.079 18.3603 14.2197 18.2197C14.3603 18.079 14.5511 18 14.75 18C14.9489 18 15.1397 18.079 15.2803 18.2197C15.421 18.3603 15.5 18.5511 15.5 18.75ZM17.75 19.5C17.9489 19.5 18.1397 19.421 18.2803 19.2803C18.421 19.1397 18.5 18.9489 18.5 18.75C18.5 18.5511 18.421 18.3603 18.2803 18.2197C18.1397 18.079 17.9489 18 17.75 18C17.5511 18 17.3603 18.079 17.2197 18.2197C17.079 18.3603 17 18.5511 17 18.75C17 18.9489 17.079 19.1397 17.2197 19.2803C17.3603 19.421 17.5511 19.5 17.75 19.5Z" fill="#24670E"/>
<path fill-rule="evenodd" clip-rule="evenodd" d="M10.75 16.5C10.4545 16.5 10.1619 16.5582 9.88896 16.6713C9.61598 16.7843 9.36794 16.9501 9.15901 17.159C8.95008 17.3679 8.78434 17.616 8.67127 17.889C8.5582 18.1619 8.5 18.4545 8.5 18.75C8.5 19.0455 8.5582 19.3381 8.67127 19.611C8.78434 19.884 8.95008 20.1321 9.15901 20.341C9.36794 20.5499 9.61598 20.7157 9.88896 20.8287C10.1619 20.9418 10.4545 21 10.75 21H18.75C19.0455 21 19.3381 20.9418 19.611 20.8287C19.884 20.7157 20.1321 20.5499 20.341 20.341C20.5499 20.1321 20.7157 19.884 20.8287 19.611C20.9418 19.3381 21 19.0455 21 18.75C21 18.4545 20.9418 18.1619 20.8287 17.889C20.7157 17.616 20.5499 17.3679 20.341 17.159C20.1321 16.9501 19.884 16.7843 19.611 16.6713C19.3381 16.5582 19.0455 16.5 18.75 16.5H10.75ZM18.75 17.5H10.75C10.4185 17.5 10.1005 17.6317 9.86612 17.8661C9.6317 18.1005 9.5 18.4185 9.5 18.75C9.5 19.0815 9.6317 19.3995 9.86612 19.6339C10.1005 19.8683 10.4185 20 10.75 20H18.75C19.0815 20 19.3995 19.8683 19.6339 19.6339C19.8683 19.3995 20 19.0815 20 18.75C20 18.4185 19.8683 18.1005 19.6339 17.8661C19.3995 17.6317 19.0815 17.5 18.75 17.5Z" fill="#24670E"/>
</svg>
