<svg width="24" height="25" viewBox="0 0 24 25" fill="none" xmlns="http://www.w3.org/2000/svg">
<path d="M6.532 5.25H13.468C13.925 5.25 14.322 5.25 14.633 5.28C14.94 5.308 15.318 5.375 15.626 5.628C16.023 5.954 16.247 6.442 16.25 6.95C16.252 7.34 16.078 7.676 15.91 7.942C15.742 8.212 15.499 8.532 15.215 8.906L15.184 8.946L15.174 8.959L12.619 12.328C12.367 12.66 12.304 12.748 12.26 12.838C12.2142 12.9323 12.1809 13.0321 12.161 13.135C12.141 13.235 12.138 13.347 12.138 13.769V18.012C12.138 18.22 12.138 18.424 12.124 18.59C12.109 18.754 12.072 19.017 11.9 19.253C11.69 19.54 11.363 19.726 11 19.748C10.698 19.767 10.453 19.645 10.31 19.565C10.166 19.485 10.001 19.37 9.834 19.255L8.845 18.572L8.797 18.539C8.606 18.408 8.394 18.263 8.235 18.062C8.09682 17.8886 7.99389 17.6899 7.932 17.477C7.861 17.233 7.862 16.977 7.862 16.739V13.769C7.862 13.347 7.858 13.235 7.839 13.135C7.8188 13.0321 7.78518 12.9322 7.739 12.838C7.696 12.748 7.633 12.66 7.381 12.328L4.825 8.959L4.815 8.947L4.785 8.907C4.501 8.532 4.258 8.212 4.089 7.942C3.922 7.676 3.749 7.34 3.75 6.95C3.75053 6.69734 3.80672 6.4479 3.91457 6.21941C4.02242 5.99092 4.17928 5.789 4.374 5.628C4.682 5.375 5.06 5.308 5.367 5.279C5.678 5.25 6.074 5.25 6.532 5.25ZM6.929 9.25L8.576 11.42L8.611 11.467C8.812 11.731 8.972 11.942 9.089 12.182C9.19167 12.3933 9.26567 12.615 9.311 12.847C9.362 13.108 9.361 13.374 9.361 13.711V16.679C9.361 16.837 9.362 16.926 9.366 16.993L9.372 17.055C9.37887 17.0815 9.39113 17.1064 9.408 17.128L9.449 17.162C9.499 17.202 9.569 17.25 9.697 17.338L10.638 17.988V13.71C10.638 13.373 10.638 13.107 10.689 12.846C10.7343 12.6147 10.8083 12.393 10.911 12.181C11.028 11.941 11.188 11.731 11.389 11.466L11.424 11.42L13.07 9.25H6.929ZM14.209 7.75C14.404 7.49 14.543 7.3 14.639 7.146C14.719 7.02 14.743 6.958 14.749 6.939C14.7458 6.88916 14.7257 6.8419 14.692 6.805C14.6266 6.78759 14.5596 6.77687 14.492 6.773C14.26 6.751 13.936 6.75 13.432 6.75H6.568C6.064 6.75 5.74 6.75 5.508 6.773C5.44043 6.77687 5.37342 6.78759 5.308 6.805C5.27434 6.8419 5.25424 6.88916 5.251 6.939C5.257 6.958 5.281 7.02 5.361 7.146C5.457 7.301 5.596 7.49 5.791 7.75H14.209ZM15.75 11C15.75 10.8011 15.829 10.6103 15.9697 10.4697C16.1103 10.329 16.3011 10.25 16.5 10.25H19.5C19.6989 10.25 19.8897 10.329 20.0303 10.4697C20.171 10.6103 20.25 10.8011 20.25 11C20.25 11.1989 20.171 11.3897 20.0303 11.5303C19.8897 11.671 19.6989 11.75 19.5 11.75H16.5C16.3011 11.75 16.1103 11.671 15.9697 11.5303C15.829 11.3897 15.75 11.1989 15.75 11ZM14.25 13.5C14.25 13.3011 14.329 13.1103 14.4697 12.9697C14.6103 12.829 14.8011 12.75 15 12.75H19.5C19.6989 12.75 19.8897 12.829 20.0303 12.9697C20.171 13.1103 20.25 13.3011 20.25 13.5C20.25 13.6989 20.171 13.8897 20.0303 14.0303C19.8897 14.171 19.6989 14.25 19.5 14.25H15C14.8011 14.25 14.6103 14.171 14.4697 14.0303C14.329 13.8897 14.25 13.6989 14.25 13.5ZM13.75 16C13.75 15.8011 13.829 15.6103 13.9697 15.4697C14.1103 15.329 14.3011 15.25 14.5 15.25H19.5C19.6989 15.25 19.8897 15.329 20.0303 15.4697C20.171 15.6103 20.25 15.8011 20.25 16C20.25 16.1989 20.171 16.3897 20.0303 16.5303C19.8897 16.671 19.6989 16.75 19.5 16.75H14.5C14.3011 16.75 14.1103 16.671 13.9697 16.5303C13.829 16.3897 13.75 16.1989 13.75 16ZM13.75 18.5C13.75 18.3011 13.829 18.1103 13.9697 17.9697C14.1103 17.829 14.3011 17.75 14.5 17.75H17C17.1989 17.75 17.3897 17.829 17.5303 17.9697C17.671 18.1103 17.75 18.3011 17.75 18.5C17.75 18.6989 17.671 18.8897 17.5303 19.0303C17.3897 19.171 17.1989 19.25 17 19.25H14.5C14.3011 19.25 14.1103 19.171 13.9697 19.0303C13.829 18.8897 13.75 18.6989 13.75 18.5Z" fill="#434C3E"/>
</svg>
