<svg width="24" height="24" viewBox="0 0 24 24" fill="none" xmlns="http://www.w3.org/2000/svg">
<path d="M17.4 2.39994C17.4788 2.39907 17.5569 2.41438 17.6296 2.44493C17.7023 2.47548 17.7679 2.52061 17.8224 2.57754C17.8793 2.63205 17.9244 2.69766 17.955 2.77032C17.9855 2.84297 18.0009 2.92113 18 2.99994C18.0009 3.07875 17.9855 3.1569 17.955 3.22956C17.9244 3.30221 17.8793 3.36783 17.8224 3.42234C17.7679 3.47927 17.7023 3.5244 17.6296 3.55495C17.5569 3.5855 17.4788 3.60081 17.4 3.59994H15.6V20.3999H17.4C17.4788 20.3991 17.5569 20.4144 17.6296 20.4449C17.7023 20.4755 17.7679 20.5206 17.8224 20.5775C17.8793 20.632 17.9244 20.6977 17.955 20.7703C17.9855 20.843 18.0009 20.9211 18 20.9999C18.0009 21.0788 17.9855 21.1569 17.955 21.2296C17.9244 21.3022 17.8793 21.3678 17.8224 21.4223C17.7679 21.4793 17.7023 21.5244 17.6296 21.5549C17.5569 21.5855 17.4788 21.6008 17.4 21.5999H12.6C12.5212 21.6008 12.443 21.5855 12.3704 21.5549C12.2977 21.5244 12.2321 21.4793 12.1776 21.4223C12.1207 21.3678 12.0755 21.3022 12.045 21.2296C12.0144 21.1569 11.9991 21.0788 12 20.9999C11.9991 20.9211 12.0144 20.843 12.045 20.7703C12.0755 20.6977 12.1207 20.632 12.1776 20.5775C12.2321 20.5206 12.2977 20.4755 12.3704 20.4449C12.443 20.4144 12.5212 20.3991 12.6 20.3999H14.4V3.59994H12.6C12.5212 3.60081 12.443 3.5855 12.3704 3.55495C12.2977 3.5244 12.2321 3.47927 12.1776 3.42234C12.1207 3.36783 12.0755 3.30221 12.045 3.22956C12.0144 3.1569 11.9991 3.07875 12 2.99994C11.9991 2.92113 12.0144 2.84297 12.045 2.77032C12.0755 2.69766 12.1207 2.63205 12.1776 2.57754C12.2321 2.52061 12.2977 2.47548 12.3704 2.44493C12.443 2.41438 12.5212 2.39907 12.6 2.39994H17.4ZM13.2 5.99994H5.99999C5.66879 5.99994 5.35959 6.06234 5.07239 6.18714C4.78631 6.31014 4.5255 6.48509 4.30319 6.70314C4.08145 6.91872 3.90589 7.17716 3.78719 7.46274C3.66879 7.75074 3.60639 8.06314 3.59999 8.39994V15.5999C3.59999 15.9311 3.66239 16.2403 3.78719 16.5275C3.91279 16.8155 4.08479 17.0719 4.30319 17.2967C4.52159 17.5215 4.77479 17.6935 5.06278 17.8127C5.35079 17.9319 5.66319 17.9943 5.99999 17.9999H13.2V19.1999H5.99999C5.49999 19.1999 5.03439 19.1063 4.60319 18.9191C4.1774 18.7362 3.78955 18.4753 3.45959 18.1499C3.12112 17.8176 2.85292 17.4206 2.67089 16.9825C2.48887 16.5445 2.39674 16.0743 2.39999 15.5999V8.39994C2.39999 7.90634 2.49359 7.44074 2.68079 7.00314C2.86114 6.57596 3.12233 6.18764 3.44999 5.85954C3.77479 5.53474 4.15599 5.27514 4.59359 5.08074C5.03119 4.88714 5.49999 4.79354 5.99999 4.79994H13.2V5.99994ZM18 4.79994C18.4944 4.79994 18.96 4.89354 19.3968 5.08074C20.2642 5.44564 20.9543 6.1357 21.3192 7.00314C21.5128 7.44634 21.6064 7.91194 21.6 8.39994V15.5999C21.6 16.0999 21.5064 16.5655 21.3192 16.9967C21.1312 17.4287 20.8748 17.8099 20.55 18.1403C20.2252 18.4715 19.8412 18.7311 19.398 18.9191C18.9554 19.105 18.48 19.2005 18 19.1999H16.8V17.9999H18C18.3312 17.9999 18.6404 17.9375 18.9276 17.8127C19.2137 17.6897 19.4745 17.5148 19.6968 17.2967C19.9185 17.0812 20.0941 16.8227 20.2128 16.5371C20.3312 16.2491 20.3936 15.9367 20.4 15.5999V8.39994C20.4031 8.08105 20.3394 7.76504 20.2128 7.47234C20.0898 7.18626 19.9148 6.92545 19.6968 6.70314C19.4812 6.4814 19.2228 6.30584 18.9372 6.18714C18.6492 6.06874 18.3368 6.00634 18 5.99994H16.8V4.79994H18ZM8.99999 7.19994C9.1148 7.20009 9.22716 7.23319 9.32373 7.2953C9.4203 7.35741 9.49702 7.44593 9.54479 7.55034L12.8448 14.7503C12.8823 14.8225 12.9047 14.9015 12.9108 14.9826C12.9168 15.0637 12.9063 15.1451 12.8799 15.222C12.8535 15.2989 12.8117 15.3697 12.7571 15.4299C12.7025 15.4902 12.6363 15.5387 12.5623 15.5726C12.4884 15.6064 12.4084 15.6249 12.3271 15.6269C12.2458 15.6289 12.165 15.6144 12.0895 15.5841C12.014 15.5539 11.9454 15.5087 11.888 15.4512C11.8305 15.3937 11.7853 15.3251 11.7552 15.2495L10.8144 13.1975L10.8 13.1999H7.19999L7.18439 13.1975L6.24479 15.2495C6.21464 15.3251 6.16946 15.3937 6.112 15.4512C6.05453 15.5087 5.98597 15.5539 5.91048 15.5841C5.83499 15.6144 5.75415 15.6289 5.67287 15.6269C5.59158 15.6249 5.51155 15.6064 5.43763 15.5726C5.36371 15.5387 5.29744 15.4902 5.24286 15.4299C5.18827 15.3697 5.1465 15.2989 5.12009 15.222C5.09367 15.1451 5.08316 15.0637 5.08919 14.9826C5.09523 14.9015 5.11768 14.8225 5.15519 14.7503L8.45519 7.55034L8.49599 7.47474C8.55034 7.39046 8.62495 7.32116 8.71299 7.27315C8.80103 7.22515 8.8997 7.19998 8.99999 7.19994ZM7.73399 11.9999H10.266L8.99999 9.23754L7.73399 11.9999Z" fill="#434C3E"/>
</svg>
