<svg width="55" height="58" viewBox="0 0 55 58" fill="none" xmlns="http://www.w3.org/2000/svg">
<path fill-rule="evenodd" clip-rule="evenodd" d="M52.2815 15.3501C49.6867 13.9445 38.1901 10.5994 35.2312 9.61564C30.6067 8.06734 26.7101 5.67548 22.3968 6.87349C19.6747 7.60286 8.24436 15.6769 11.2665 16.6517C11.3555 16.6798 11.4493 16.6899 11.5422 16.6812C11.6352 16.6726 11.7255 16.6454 11.8078 16.6013C11.8901 16.5572 11.9628 16.4972 12.0215 16.4246C12.0802 16.352 12.1239 16.2684 12.1498 16.1787C12.5532 14.8941 18.1426 10.8553 22.8828 8.54386C25.4143 8.1512 28.0044 8.61198 30.245 9.85359C34.5262 11.6969 48.7115 16.2839 50.7845 17.2656C51.1666 17.4709 51.5285 17.7089 51.8701 17.9797C51.4261 22.9493 50.2636 27.8283 48.419 32.4643C47.7796 34.0291 46.8319 35.4493 45.6323 36.6403C41.8702 36.0534 38.1472 35.2385 34.484 34.2C30.0772 32.8654 25.74 31.3112 21.4885 29.543C19.2757 28.4053 17.4712 26.6078 16.3249 24.3994C16.2472 24.2542 16.1149 24.1458 15.9573 24.0982C15.7996 24.0505 15.6295 24.0673 15.4843 24.1451C15.3391 24.2228 15.2308 24.3551 15.1831 24.5127C15.1354 24.6704 15.1523 24.8405 15.23 24.9857C18.1263 29.8438 19.8478 30.5124 25.1257 32.641C31.1492 35.3362 37.4773 37.2909 43.9716 38.4621C44.5904 38.7649 45.2913 38.8572 45.9675 38.7249C46.6437 38.5926 47.2581 38.2429 47.7172 37.7291C51.5706 33.8462 53.1958 24.3617 54.0397 19.5698C54.3378 17.7496 54.5502 16.6126 52.2815 15.3501Z" fill="#24670E"/>
<path fill-rule="evenodd" clip-rule="evenodd" d="M22.6128 19.0768C22.2801 16.8456 21.9256 15.7174 19.7748 15.3445C19.181 15.2198 18.5678 15.219 17.9736 15.3422C17.3795 15.4654 16.8172 15.71 16.3219 16.0606C15.8267 16.4112 15.4091 16.8603 15.0955 17.3797C14.7818 17.8991 14.5787 18.4777 14.499 19.0793C12.4695 18.9737 10.476 18.5008 8.61528 17.6834C5.33552 16.4858 1.30477 13.7121 2.53339 10.486C3.03956 9.10106 5.0015 8.64262 7.20871 8.73117C12.26 8.86899 13.3576 11.2578 14.0765 10.0538C15.0778 8.36065 8.3558 6.8442 5.89262 6.91313C0.0786053 7.04988 -1.34769 11.8133 1.23677 15.4069C4.38757 19.7658 9.81802 20.9506 15.0487 20.7837C18.642 25.5453 22.9708 21.3172 22.6128 19.0768ZM21.0843 17.917C21.3074 18.4854 21.3221 19.1144 21.1259 19.6926C20.9298 20.2708 20.5353 20.761 20.0124 21.0763C19.4896 21.3916 18.872 21.5117 18.269 21.4154C17.6661 21.3191 17.1167 21.0125 16.7181 20.5499C17.6467 20.4157 18.3537 20.0371 18.1787 19.5409C18.0038 19.0447 16.7503 19.0807 15.8617 19.0778C16.572 15.6506 20.7341 16.2419 21.0843 17.917Z" fill="#3C7F1A"/>
<path fill-rule="evenodd" clip-rule="evenodd" d="M44.9941 0.00020889C37.2753 0.655545 39.3671 0.490527 29.3287 2.79632C29.1877 2.87185 28.0507 2.91351 27.7346 3.5138C27.6958 3.63254 27.6904 3.75966 27.7189 3.88128C27.7474 4.00291 27.8087 4.11436 27.8963 4.2035C27.9838 4.29263 28.0941 4.35601 28.2152 4.38673C28.3363 4.41745 28.4635 4.41432 28.5829 4.37768C29.9789 4.0839 31.3876 3.88313 32.8091 3.77534C36.9108 3.54358 40.9929 3.04317 45.0292 2.27733C46.8454 2.14419 47.1902 8.64315 47.8611 9.8538C47.9487 10.0175 48.0978 10.1396 48.2755 10.1934C48.4532 10.2471 48.645 10.2281 48.8086 10.1405C48.9723 10.0528 49.0945 9.90375 49.1482 9.72605C49.202 9.54835 49.1829 9.35658 49.0953 9.19292C48.3627 7.69766 49.4049 0.0476809 44.9941 0.00020889ZM26.9371 22.3989C26.7489 22.3944 26.5645 22.3458 26.3986 22.2568C26.2328 22.1679 26.0902 22.0412 25.9823 21.887C25.9477 21.785 25.8913 21.6918 25.817 21.6138C25.7427 21.5358 25.6523 21.4749 25.5521 21.4353C25.4519 21.3958 25.3443 21.3785 25.2368 21.3847C25.1293 21.391 25.0244 21.4205 24.9294 21.4714C24.8345 21.5222 24.7517 21.5931 24.6869 21.6792C24.6221 21.7652 24.5769 21.8644 24.5542 21.9697C24.5316 22.075 24.5322 22.184 24.5559 22.289C24.5797 22.3941 24.626 22.4927 24.6917 22.5781C24.9071 23.1108 25.2846 23.5623 25.7707 23.8687C26.2569 24.1751 26.827 24.3209 27.4005 24.2856C27.7322 24.264 28.0563 24.1773 28.3543 24.0303C28.6523 23.8833 28.9184 23.679 29.1374 23.429C29.3563 23.179 29.5237 22.8883 29.6301 22.5734C29.7365 22.2586 29.7797 21.9259 29.7572 21.5943C29.7693 21.0661 29.6509 20.5442 29.4175 20.0702C29.2087 19.6629 28.9281 19.2967 28.5891 18.9892C27.4969 18.0087 26.4242 17.5349 29.144 18.0342C29.2941 18.0741 29.4534 18.06 29.5942 17.9943C29.7349 17.9287 29.8481 17.8156 29.9139 17.6749C29.9797 17.5342 29.9939 17.3749 29.9541 17.2248C29.9143 17.0747 29.823 16.9433 29.6962 16.8537C27.8359 16.0531 25.8472 15.5253 25.2992 17.6836C25.2359 18.0345 25.2465 18.3947 25.3305 18.7412C25.4145 19.0877 25.5699 19.4128 25.7868 19.6958C26.0983 20.2776 26.7528 20.61 27.1912 21.217C27.3346 21.3623 27.4329 21.546 27.4744 21.7459C27.4127 22.0966 27.2873 22.4133 26.9361 22.3972M33.3233 17.3866C32.9095 17.6082 32.5465 17.8933 32.2341 18.2421C31.8051 18.7272 31.4745 19.2911 31.2605 19.9023C31.0218 20.6654 30.8309 21.4414 30.6877 22.2304L30.3698 23.628L30.037 25.2605C30.0186 25.4168 30.0566 25.5745 30.1443 25.7053C30.232 25.836 30.3635 25.9311 30.5151 25.9734C30.6667 26.0157 30.8285 26.0024 30.9711 25.936C31.1138 25.8695 31.2281 25.7542 31.2932 25.611L31.8701 24.0996L32.0131 23.7735L32.1075 23.9498C32.3273 24.1266 32.6024 24.2203 32.8844 24.2144C33.2627 24.2387 33.5396 24.1585 33.9067 24.1661C33.7183 24.7888 33.5322 25.4579 33.3323 26.021C33.2943 26.1113 33.2744 26.2083 33.2739 26.3063C33.2734 26.4044 33.2921 26.5016 33.3292 26.5923C33.3662 26.6831 33.4207 26.7657 33.4897 26.8354C33.5586 26.9051 33.6406 26.9605 33.731 26.9985C33.8213 27.0366 33.9183 27.0564 34.0163 27.0569C34.1144 27.0575 34.2115 27.0387 34.3023 27.0017C34.3931 26.9646 34.4757 26.9101 34.5454 26.8412C34.6151 26.7722 34.6705 26.6902 34.7085 26.5999C35.2016 25.6099 35.8255 24.4363 36.2485 23.2774C36.5714 22.4315 36.7862 21.5587 36.8929 20.6592C36.8983 19.8304 36.6484 19.0205 36.1721 18.3386C35.9842 18.0393 35.739 17.7801 35.4506 17.576C35.1621 17.3718 34.8362 17.2267 34.4915 17.149C34.0881 17.1239 33.6843 17.2048 33.3233 17.3866ZM34.7145 20.5778C34.7198 21.2863 34.6395 21.9927 34.4754 22.6819C34.2659 22.427 34.0283 22.1966 33.7672 21.9948C33.5352 21.8124 33.2551 21.7015 32.961 21.6756C33.0782 21.386 33.1954 21.0964 33.3396 20.815C33.4829 20.5318 34.706 18.3546 34.7145 20.5778ZM38.7705 21.1533L37.227 24.2531C36.9523 24.9372 36.7787 25.6576 36.7115 26.3917C36.7173 26.7615 36.8114 27.1245 36.986 27.4505C37.1605 27.7765 37.4105 28.0561 37.7151 28.2659L38.4982 28.754L39.451 29.1309C39.6308 29.1977 39.8295 29.1921 40.0053 29.1152C40.181 29.0384 40.32 28.8963 40.3931 28.7189C40.4661 28.5415 40.4674 28.3428 40.3966 28.1644C40.3259 27.9861 40.1887 27.8423 40.014 27.7631L39.4808 27.3181L38.9835 26.8131L38.8891 26.6368C38.8607 26.5839 39.0132 26.2754 39.0705 26.0859L39.4673 24.916L39.9386 21.551C39.9826 21.4661 40.0076 21.3726 40.0119 21.2771C40.0162 21.1815 39.9997 21.0862 39.9635 20.9976C39.9273 20.9091 39.8723 20.8295 39.8023 20.7643C39.7323 20.6991 39.6489 20.65 39.5581 20.6202C39.4672 20.5904 39.3709 20.5807 39.2759 20.5919C39.1809 20.603 39.0894 20.6346 39.0079 20.6846C38.9263 20.7345 38.8566 20.8016 38.8035 20.8812C38.7504 20.9608 38.7153 21.0509 38.7005 21.1454L38.7705 21.1533ZM44.5302 24.4782L45.0024 24.7245C45.1752 24.7817 45.3497 24.8251 45.5259 24.8548C47.5627 25.2183 47.7258 24.9722 47.8882 24.6357C48.0488 24.3001 48.3108 24.0691 46.4631 22.6945C46.299 22.5731 46.1221 22.4701 45.9355 22.3871C45.7409 22.3096 45.5371 22.2578 45.329 22.2332C43.3866 22.046 43.1555 22.4193 41.9839 25.1588C41.8501 25.4596 41.8141 25.7738 41.7064 26.081C41.5999 26.433 41.4664 26.7767 41.3879 27.1386C41.3273 27.5507 41.3051 27.9641 41.3215 28.3788C41.3467 28.7987 41.4699 29.2068 41.6868 29.5694C41.9632 29.984 42.3396 30.3224 42.7809 30.5535C43.1818 30.7472 45.1233 31.5724 45.379 30.4781C45.6348 29.3882 44.6941 29.6651 43.9346 29.094C43.7811 28.9393 43.6762 28.7433 43.6325 28.5298L43.7764 27.9513L44.0283 27.998C45.9406 28.1333 46.0857 27.8491 46.2016 27.5148C46.3175 27.1805 46.3793 26.8298 44.7919 25.7719C44.651 25.6711 44.4947 25.5939 44.3291 25.5432L44.5629 24.3699C44.5656 24.4088 44.5539 24.4473 44.5302 24.4782Z" fill="#24670E"/>
</svg>
