<svg width="24" height="24" viewBox="0 0 24 24" fill="none" xmlns="http://www.w3.org/2000/svg">
<path fill-rule="evenodd" clip-rule="evenodd" d="M23.7582 12.6811C23.5345 12.4762 23.2976 12.2862 23.0492 12.1121C22.6192 11.8021 22.1902 11.5121 21.7412 11.2331C21.3928 11.0168 21.0326 10.8201 20.6622 10.6441C20.9322 10.0541 21.2822 9.47605 21.5222 8.86605C21.6402 8.54272 21.7199 8.21005 21.7612 7.86805C21.79 7.57542 21.79 7.28068 21.7612 6.98805C21.7387 6.86651 21.6893 6.75155 21.6166 6.65155C21.5439 6.55155 21.4499 6.46904 21.3412 6.41005C21.1645 6.33701 20.9705 6.31618 20.7822 6.35005C20.5034 6.41703 20.2297 6.50392 19.9632 6.61005L18.6152 7.12905C18.3152 7.23905 18.0352 7.37905 17.7562 7.50905C17.8162 6.90905 17.9062 6.30905 17.9462 5.71105C17.9649 5.37772 17.9649 5.04439 17.9462 4.71105C17.9062 4.33972 17.8262 3.97705 17.7062 3.62305C17.6544 3.52017 17.578 3.43167 17.4839 3.36538C17.3897 3.29909 17.2806 3.25708 17.1662 3.24305C16.9449 3.23621 16.7275 3.30304 16.5482 3.43305C16.2816 3.62705 16.0282 3.83705 15.7882 4.06305L13.5932 6.01005C13.315 5.00784 12.9333 4.03729 12.4542 3.11405C12.1599 2.58167 11.7155 2.14765 11.1762 1.86605C11.0143 1.81211 10.8387 1.81658 10.6797 1.87869C10.5208 1.9408 10.3886 2.05663 10.3062 2.20605C10.1042 2.59072 9.9249 2.98672 9.76823 3.39405L9.06823 5.72105C8.36315 5.13037 7.59598 4.61803 6.78023 4.19305C6.31502 3.98639 5.81127 3.88073 5.30223 3.88305C5.30223 3.88305 4.69323 3.99305 4.68323 4.54305V5.15105L4.79323 7.06905C4.06423 7.13905 3.32523 7.19905 2.59623 7.29905C2.22623 7.29905 1.85623 7.40905 1.48723 7.48905C1.1419 7.55972 0.80923 7.66939 0.48923 7.81805C0.296769 7.91672 0.144715 8.07938 0.0592305 8.27805C0.0043455 8.39823 -0.0126143 8.53228 0.0106108 8.66234C0.033836 8.7924 0.0961431 8.9123 0.18923 9.00605C0.28923 9.12605 0.599231 9.39605 0.62923 9.42605C0.849231 9.62605 1.0789 9.81572 1.31823 9.99505C1.67823 10.2651 2.04723 10.5051 2.42623 10.7341L3.14623 11.1741L3.29523 11.2741L1.45723 12.1221C1.13056 12.2561 0.817897 12.4161 0.51923 12.6021C0.35148 12.7098 0.20279 12.8446 0.0792305 13.0011C0.0301996 13.0934 0.00456224 13.1965 0.00456224 13.3011C0.00456224 13.4057 0.0301996 13.5087 0.0792305 13.6011C0.28923 14.0401 0.739231 14.0001 1.22823 14.1791C1.52823 14.2691 1.81723 14.3491 2.10723 14.4091C2.57623 14.5091 3.04523 14.5791 3.51523 14.6591C3.22523 14.8691 2.94523 15.0691 2.66523 15.3081C2.33216 15.5822 2.02182 15.8829 1.73723 16.2071C1.54723 16.4297 1.38723 16.6727 1.25723 16.9361C1.16029 17.152 1.13235 17.3926 1.17723 17.6251C1.21823 17.7566 1.2988 17.8723 1.40796 17.9564C1.51712 18.0406 1.64956 18.089 1.78723 18.0951H1.98723L2.79623 18.1451H4.67323C5.20323 18.1451 5.67223 18.1451 6.24123 18.0651L5.98123 19.2331C5.8939 19.5781 5.82711 19.9281 5.78123 20.2811C5.7619 20.5371 5.7619 20.7937 5.78123 21.0511C5.81255 21.3053 5.87989 21.5538 5.98123 21.7891C6.0674 21.9462 6.21057 22.0643 6.38123 22.1191C6.54312 22.1595 6.71428 22.1381 6.86123 22.0591C6.94656 22.0111 7.02623 21.9544 7.10023 21.8891L7.73023 21.3891C8.12156 21.0004 8.53756 20.6377 8.97823 20.3011C9.24356 20.1144 9.51956 19.9447 9.80623 19.7921L10.3962 20.6711C10.6762 21.1081 11.0122 21.5071 11.3942 21.8591C11.5386 21.9793 11.7064 22.0681 11.8871 22.1197C12.0677 22.1714 12.2571 22.1848 12.4432 22.1591C12.62 22.1121 12.7774 22.0106 12.8932 21.8691C13.0159 21.6917 13.1289 21.5087 13.2322 21.3201L14.1412 19.8221C14.5112 20.1721 14.8502 20.5511 15.2392 20.8911C15.4526 21.0844 15.6792 21.2607 15.9192 21.4201C16.1319 21.5534 16.3549 21.6667 16.5882 21.7601C16.7752 21.8311 16.9782 21.8521 17.1772 21.8201C17.3235 21.7823 17.453 21.6969 17.5453 21.5774C17.6377 21.4579 17.6876 21.3111 17.6872 21.1601V20.5111L17.4072 18.5941C18.1772 18.6741 18.9532 18.6741 19.7232 18.5941C20.1604 18.5594 20.584 18.4261 20.9622 18.2041C21.0708 18.112 21.1497 17.9898 21.1888 17.8529C21.228 17.716 21.2257 17.5706 21.1822 17.4351C21.1222 17.2351 20.9022 16.7361 20.8822 16.6761L19.6142 14.1601C20.2832 14.1601 20.9422 14.2501 21.6112 14.2301C21.9701 14.2108 22.3272 14.1673 22.6802 14.1001C23.0269 14.0247 23.3596 13.9081 23.6782 13.7501C23.7626 13.6974 23.8348 13.6273 23.89 13.5445C23.9452 13.4618 23.9821 13.3682 23.9982 13.2701C24.0076 13.1599 23.9907 13.0491 23.949 12.9467C23.9073 12.8443 23.8419 12.7533 23.7582 12.6811ZM21.1522 13.2011C20.5022 13.2911 19.8432 13.3311 19.1542 13.4211C19.058 13.4262 18.9676 13.4687 18.9023 13.5395C18.8369 13.6103 18.8017 13.7037 18.8042 13.8001L18.8542 14.2601L19.6542 17.1261L19.8242 17.3961C19.6047 17.4846 19.3769 17.5512 19.1442 17.5951C17.1472 18.0051 16.6272 17.5951 16.6372 18.1451L16.4572 20.3411C16.183 20.2162 15.9194 20.0691 15.6692 19.9011C15.2292 19.6121 14.8092 19.3031 14.3702 19.0231C14.3041 18.9689 14.2212 18.9393 14.1357 18.9393C14.0502 18.9393 13.9674 18.9689 13.9012 19.0231C13.9012 19.0231 13.8312 19.0231 13.8012 19.0731C11.7242 21.0701 12.1732 20.8711 11.9042 20.6511C11.6352 20.4311 11.2742 20.1011 11.1342 19.9711L10.2562 19.0931C10.2228 19.0595 10.183 19.0329 10.1393 19.0147C10.0955 18.9965 10.0486 18.9872 10.0012 18.9872C9.95385 18.9872 9.90693 18.9965 9.86318 19.0147C9.81942 19.0329 9.77968 19.0595 9.74623 19.0931C9.2469 19.2357 8.76423 19.4224 8.29823 19.6531C7.84423 19.8851 7.4049 20.1444 6.98023 20.4311V19.3331L7.11023 17.8451C7.10661 17.774 7.08313 17.7055 7.04247 17.6471C7.00182 17.5888 6.9456 17.543 6.88023 17.5151C6.84958 17.4816 6.81256 17.4547 6.77134 17.4358C6.73013 17.4169 6.68555 17.4065 6.64023 17.4051C6.27123 17.4051 5.91223 17.3351 5.54223 17.2851C4.67323 17.1751 3.81423 17.0151 2.94523 16.8851H2.63523C2.83723 16.5764 3.0639 16.2871 3.31523 16.0171C3.71523 15.5671 4.16423 15.1581 4.56323 14.7591C4.96323 14.3591 4.28323 14.1591 2.63623 13.5201C2.36623 13.4101 2.09623 13.3001 1.83623 13.1701L1.98623 13.1101L4.30423 11.5631C4.47423 11.4131 4.59423 11.2531 4.47423 11.0431C4.35423 10.8331 4.27423 11.0431 3.60423 10.4841L2.98523 9.93505L1.67723 8.67705H1.80723C2.24723 8.52705 2.69623 8.39705 3.14523 8.28705C5.98123 7.54805 5.22323 9.60505 5.87223 5.21105C6.15556 5.27705 6.4319 5.36705 6.70123 5.48105C7.50023 5.81105 8.25923 6.27005 8.98823 6.60905C9.55723 6.91905 9.98623 5.49105 10.7852 3.88305C10.7852 3.88305 10.8852 3.53305 11.0052 3.26305C11.2792 3.54172 11.5122 3.85172 11.7042 4.19305C12.2542 5.10105 12.7032 6.19005 13.0622 6.77905C13.0622 6.77905 13.1122 6.77905 13.1422 6.84905H13.2022C13.2022 6.84905 13.2622 6.84905 13.3022 6.90905C13.3478 6.93538 13.3996 6.94925 13.4522 6.94925C13.5049 6.94925 13.5566 6.93538 13.6022 6.90905L16.5082 5.01105L16.7282 4.77105V4.86105C16.8016 5.24105 16.8516 5.62439 16.8782 6.01105C16.8782 6.63905 16.8782 7.27905 16.9382 7.89805C16.9368 7.955 16.9497 8.01141 16.9757 8.06208C17.0017 8.11275 17.0401 8.15607 17.0872 8.18805C17.1245 8.24905 17.1816 8.29531 17.2491 8.319C17.3165 8.34269 17.39 8.34235 17.4572 8.31805L18.2752 8.11805C18.9352 7.97805 19.5842 7.87805 20.2732 7.75805C20.3332 7.75805 20.4732 7.66805 20.6232 7.60805V7.79805C20.6302 8.13505 20.5902 8.47105 20.5032 8.79705C20.1632 10.0651 19.7132 10.7941 20.0932 11.0041C20.4219 11.2341 20.7349 11.4837 21.0322 11.7531C21.4722 12.1331 21.8812 12.5321 22.2802 12.9411C21.9102 13.0511 21.5339 13.1377 21.1512 13.2011" fill="#75CF44"/>
<path fill-rule="evenodd" clip-rule="evenodd" d="M7.16034 11.8229C6.9609 11.7224 6.77024 11.6053 6.59034 11.4729C6.46034 11.3829 6.36134 11.3929 6.48034 11.2829L6.77034 11.1729H7.43034C7.47173 11.1833 7.51477 11.1853 7.55694 11.1788C7.59911 11.1723 7.63955 11.1574 7.67589 11.135C7.71223 11.1127 7.74373 11.0833 7.76853 11.0486C7.79334 11.0138 7.81096 10.9745 7.82034 10.9329C7.8413 10.8508 7.82886 10.7638 7.78574 10.6909C7.74263 10.6179 7.67236 10.5651 7.59034 10.5439C7.42034 10.4839 7.26034 10.4439 7.10034 10.4039C6.97843 10.378 6.85475 10.3613 6.73034 10.3539L6.13134 10.4239L5.73134 10.6339C5.61558 10.7214 5.52191 10.8349 5.45783 10.9651C5.39376 11.0953 5.36106 11.2388 5.36234 11.3839C5.36127 11.5691 5.39696 11.7527 5.46734 11.924C5.53772 12.0953 5.64139 12.2509 5.77234 12.3819C6.04234 12.6319 6.39134 12.7719 6.67134 13.0209C6.76334 13.1029 6.82934 13.2109 6.86134 13.3309C6.92134 13.5509 6.86134 13.7299 6.77134 13.7999C6.64925 13.8493 6.51503 13.8605 6.38645 13.8319C6.25787 13.8033 6.14101 13.7364 6.05134 13.6399C6.00829 13.5814 5.94854 13.5373 5.87995 13.5134C5.81136 13.4894 5.73714 13.4868 5.66704 13.5059C5.59693 13.5249 5.53423 13.5647 5.48717 13.62C5.44011 13.6754 5.41088 13.7437 5.40334 13.8159C5.39055 13.9128 5.41563 14.011 5.47334 14.0899C5.64086 14.3451 5.88366 14.5418 6.16804 14.6527C6.45243 14.7636 6.76429 14.7833 7.06034 14.7089C7.40662 14.6255 7.70593 14.4087 7.89305 14.1056C8.08017 13.8026 8.13994 13.4378 8.05934 13.0909C8.01143 12.8119 7.89837 12.548 7.72934 12.3209C7.57707 12.1165 7.38313 11.9467 7.16034 11.8229ZM11.2753 10.2949C11.147 10.1638 10.9896 10.0647 10.8159 10.0056C10.6422 9.94657 10.457 9.92919 10.2753 9.9549C10.0183 10.0079 9.77834 10.1249 9.57734 10.2949C9.33641 10.4933 9.13317 10.7335 8.97734 11.0039C8.82234 11.3159 8.72734 11.6539 8.69734 12.0019C8.67467 12.4552 8.67467 12.9079 8.69734 13.3599V14.7689C8.69601 14.8122 8.70323 14.8554 8.71859 14.896C8.73396 14.9365 8.75716 14.9736 8.78688 15.0052C8.8166 15.0368 8.85225 15.0622 8.89179 15.08C8.93134 15.0978 8.974 15.1076 9.01734 15.1089C9.06019 15.1116 9.10314 15.1057 9.14364 15.0914C9.18414 15.0772 9.22136 15.0549 9.25308 15.026C9.2848 14.9971 9.31038 14.9621 9.32829 14.923C9.34621 14.884 9.35609 14.8418 9.35734 14.7989L9.49734 13.7199C9.64401 13.8346 9.80401 13.9279 9.97734 13.9999C10.0667 14.0139 10.1563 14.0139 10.2463 13.9999H10.5163C10.6143 13.9799 10.711 13.9532 10.8063 13.9199C10.8063 14.2499 10.8063 14.5889 10.7563 14.9189C10.7494 14.9661 10.752 15.0142 10.7638 15.0604C10.7757 15.1066 10.7966 15.15 10.8253 15.188C10.8541 15.2261 10.8901 15.258 10.9313 15.282C10.9725 15.3061 11.0181 15.3216 11.0653 15.3279C11.114 15.3334 11.1632 15.3293 11.2103 15.3157C11.2573 15.302 11.3011 15.2792 11.3393 15.2485C11.3774 15.2178 11.4091 15.1799 11.4324 15.1368C11.4558 15.0938 11.4704 15.0466 11.4753 14.9979C11.6371 14.3058 11.7636 13.6059 11.8543 12.9009C11.9243 12.3939 11.9243 11.8799 11.8543 11.3729C11.7697 10.9646 11.5682 10.5897 11.2743 10.2939M10.5743 12.8099C10.4839 12.78 10.3896 12.7631 10.2943 12.7599C10.2019 12.7454 10.1078 12.7454 10.0153 12.7599C9.88067 12.7932 9.75067 12.8399 9.62534 12.8999C9.62534 12.6699 9.62534 12.4099 9.72534 12.1909C9.78001 11.9722 9.87001 11.7689 9.99534 11.5809C10.0647 11.4762 10.148 11.3832 10.2453 11.3019C10.3153 11.2319 10.5153 10.9219 10.6853 11.6019C10.7933 12.0019 10.8503 12.4149 10.8543 12.8299V12.9099C10.8543 12.9399 10.6743 12.8399 10.5743 12.8099ZM14.4103 14.3399L14.0103 14.1899L13.7013 13.9999C13.6013 13.9299 13.6113 13.8099 13.5913 13.7099C13.558 13.3777 13.558 13.0431 13.5913 12.7109L13.3313 10.7139C13.3341 10.6282 13.3034 10.5448 13.2457 10.4813C13.188 10.4178 13.1079 10.3793 13.0223 10.3739C12.9355 10.3737 12.8519 10.4068 12.7887 10.4663C12.7255 10.5258 12.6874 10.6072 12.6823 10.6939L12.3633 12.6909C12.3273 13.1299 12.3613 13.5709 12.4633 13.9999C12.5149 14.195 12.6126 14.3749 12.7481 14.5243C12.8837 14.6738 13.0532 14.7886 13.2423 14.8589L13.7523 15.0089L14.3403 15.0689C14.4385 15.0782 14.5363 15.0481 14.6122 14.9853C14.6882 14.9225 14.7361 14.832 14.7453 14.7339C14.7546 14.6358 14.7245 14.538 14.6617 14.462C14.5989 14.3861 14.5085 14.3382 14.4103 14.3289V14.3399ZM17.5563 10.2149C17.4287 10.1832 17.2978 10.1664 17.1663 10.1649C17.0371 10.15 16.9066 10.15 16.7773 10.1649C15.8383 10.3749 15.5593 10.4849 15.2193 12.3919C15.1553 12.808 15.1352 13.2296 15.1593 13.6499C15.1813 13.9406 15.2413 14.2236 15.3393 14.4989C15.4073 14.6789 15.5213 14.8359 15.6693 14.9589C15.9043 15.1469 16.1883 15.2639 16.4873 15.2979C16.4873 15.2979 17.9363 15.4079 17.8663 14.7979C17.7963 14.1889 17.3763 14.5389 16.7873 14.4089C16.6414 14.3709 16.5116 14.2867 16.4173 14.1689V13.5399C16.5147 13.5499 16.6113 13.5499 16.7073 13.5399L17.0273 13.4899C18.0853 13.2299 18.1153 13.0799 18.1153 12.8809C18.1153 12.6809 18.0553 12.5009 16.9773 12.3209C16.8709 12.3108 16.7638 12.3108 16.6573 12.3209H16.3673V11.2429L16.8173 11.3529C16.9307 11.3629 17.044 11.3629 17.1573 11.3529H17.5073C18.6553 11.2029 18.7453 11.0829 18.7643 10.8429C18.7843 10.6039 18.6843 10.4639 17.5563 10.2149Z" fill="#24670E"/>
</svg>
