<svg width="32" height="32" viewBox="0 0 32 32" fill="none" xmlns="http://www.w3.org/2000/svg">
<path d="M11 21L21 11M15.636 3L19.172 5.12L23.278 5.482L24.892 9.276L28 11.98L27.076 16L28 20.018L24.892 22.724L23.278 26.518L19.172 26.88L15.636 29L12.102 26.88L7.99397 26.518L6.38197 22.724L3.27197 20.018L4.19597 16L3.27197 11.982L6.38197 9.276L7.99397 5.482L12.102 5.12L15.636 3ZM14 13C14 13.5304 13.7893 14.0391 13.4142 14.4142C13.0391 14.7893 12.5304 15 12 15C11.4695 15 10.9608 14.7893 10.5858 14.4142C10.2107 14.0391 9.99997 13.5304 9.99997 13C9.99997 12.4696 10.2107 11.9609 10.5858 11.5858C10.9608 11.2107 11.4695 11 12 11C12.5304 11 13.0391 11.2107 13.4142 11.5858C13.7893 11.9609 14 12.4696 14 13ZM22 20C22 20.5304 21.7893 21.0391 21.4142 21.4142C21.0391 21.7893 20.5304 22 20 22C19.4695 22 18.9608 21.7893 18.5858 21.4142C18.2107 21.0391 18 20.5304 18 20C18 19.4696 18.2107 18.9609 18.5858 18.5858C18.9608 18.2107 19.4695 18 20 18C20.5304 18 21.0391 18.2107 21.4142 18.5858C21.7893 18.9609 22 19.4696 22 20Z" stroke="#24670E" stroke-width="2"/>
</svg>
