<svg width="24" height="24" viewBox="0 0 24 24" fill="none" xmlns="http://www.w3.org/2000/svg">
<path d="M8.35049 13.6155L1.95923 20.0067Z" fill="#434C3E"/>
<path d="M8.35049 13.6155L1.95923 20.0067" stroke="#434C3E" stroke-width="1.5"/>
<path d="M10.4318 15.6965L4.04053 22.0878" stroke="#434C3E" stroke-width="1.5"/>
<path d="M4.04035 22.0879C3.76437 22.3639 3.39007 22.5189 2.99979 22.5189C2.6095 22.5189 2.2352 22.3639 1.95923 22.0879" stroke="#434C3E" stroke-width="1.5" stroke-linecap="round" stroke-linejoin="round"/>
<path d="M1.95933 20.0068C1.68336 20.2828 1.52832 20.6571 1.52832 21.0474C1.52832 21.4377 1.68336 21.812 1.95933 22.088" stroke="#434C3E" stroke-width="1.5" stroke-linecap="round" stroke-linejoin="round"/>
<path d="M22.5613 8.10792C22.5613 8.97755 22.39 9.83866 22.0572 10.6421C21.7244 11.4455 21.2367 12.1755 20.6217 12.7904C20.0068 13.4054 19.2768 13.8931 18.4734 14.2259C17.67 14.5587 16.8088 14.73 15.9392 14.73C15.0696 14.73 14.2085 14.5587 13.4051 14.2259C12.6016 13.8931 11.8716 13.4054 11.2567 12.7904C10.6418 12.1755 10.154 11.4455 9.82121 10.6421C9.48842 9.83866 9.31714 8.97755 9.31714 8.10792C9.31714 6.35164 10.0148 4.66728 11.2567 3.4254C12.4986 2.18352 14.1829 1.48584 15.9392 1.48584C16.8088 1.48584 17.67 1.65713 18.4734 1.98992C19.2768 2.32271 20.0068 2.81049 20.6217 3.4254C21.2367 4.04032 21.7244 4.77033 22.0572 5.57376C22.39 6.37719 22.5613 7.2383 22.5613 8.10792Z" stroke="#434C3E" stroke-width="1.5" stroke-linecap="round" stroke-linejoin="round"/>
<path d="M8.35059 13.6155L10.4317 15.6966" stroke="#434C3E" stroke-width="1.5" stroke-linecap="round" stroke-linejoin="round"/>
<path d="M9.39111 14.6561L11.2567 12.7905" stroke="#434C3E" stroke-width="1.5" stroke-linecap="round" stroke-linejoin="round"/>
<path d="M6.57422 15.3918L8.65534 17.473" stroke="#434C3E" stroke-width="1.5" stroke-linecap="round" stroke-linejoin="round"/>
<path d="M19.6181 8.10791C19.6181 9.08362 19.2305 10.0194 18.5406 10.7093C17.8507 11.3992 16.9149 11.7868 15.9392 11.7868" stroke="#75CF44" stroke-width="1.5" stroke-linecap="round" stroke-linejoin="round"/>
</svg>
