<svg width="24" height="24" viewBox="0 0 24 24" fill="none" xmlns="http://www.w3.org/2000/svg">
<path d="M23.7722 11.0419L22.4597 7.76062C22.363 7.51654 22.195 7.30726 21.9776 7.1601C21.7602 7.01293 21.5035 6.9347 21.2409 6.93563H17.8125V6C17.8125 5.85082 17.7532 5.70774 17.6477 5.60225C17.5423 5.49676 17.3992 5.4375 17.25 5.4375H3C2.6519 5.4375 2.31806 5.57578 2.07192 5.82192C1.82578 6.06806 1.6875 6.4019 1.6875 6.75V17.25C1.6875 17.5981 1.82578 17.9319 2.07192 18.1781C2.31806 18.4242 2.6519 18.5625 3 18.5625H4.74375C4.87285 19.1983 5.21779 19.7699 5.7201 20.1805C6.22242 20.591 6.85124 20.8153 7.5 20.8153C8.14876 20.8153 8.77758 20.591 9.2799 20.1805C9.78221 19.7699 10.1271 19.1983 10.2563 18.5625H15.2438C15.3729 19.1983 15.7178 19.7699 16.2201 20.1805C16.7224 20.591 17.3512 20.8153 18 20.8153C18.6488 20.8153 19.2776 20.591 19.7799 20.1805C20.2822 19.7699 20.6271 19.1983 20.7562 18.5625H22.5C22.8481 18.5625 23.1819 18.4242 23.4281 18.1781C23.6742 17.9319 23.8125 17.5981 23.8125 17.25V11.25C23.8124 11.1787 23.7987 11.1081 23.7722 11.0419ZM17.8125 8.0625H21.2419C21.2794 8.06246 21.3161 8.0737 21.3472 8.09477C21.3783 8.11583 21.4024 8.14574 21.4163 8.18063L22.4194 10.6875H17.8125V8.0625ZM2.8125 6.75C2.8125 6.70027 2.83225 6.65258 2.86742 6.61742C2.90258 6.58225 2.95027 6.5625 3 6.5625H16.6875V12.9375H2.8125V6.75ZM7.5 19.6875C7.16624 19.6875 6.83998 19.5885 6.56248 19.4031C6.28497 19.2177 6.06868 18.9541 5.94095 18.6458C5.81323 18.3374 5.77981 17.9981 5.84492 17.6708C5.91004 17.3434 6.07076 17.0428 6.30676 16.8068C6.54276 16.5708 6.84344 16.41 7.17078 16.3449C7.49813 16.2798 7.83743 16.3132 8.14578 16.441C8.45413 16.5687 8.71768 16.785 8.9031 17.0625C9.08853 17.34 9.1875 17.6662 9.1875 18C9.1875 18.4476 9.00971 18.8768 8.69324 19.1932C8.37677 19.5097 7.94755 19.6875 7.5 19.6875ZM15.2438 17.4375H10.2563C10.1271 16.8017 9.78221 16.2301 9.2799 15.8195C8.77758 15.409 8.14876 15.1847 7.5 15.1847C6.85124 15.1847 6.22242 15.409 5.7201 15.8195C5.21779 16.2301 4.87285 16.8017 4.74375 17.4375H3C2.95027 17.4375 2.90258 17.4177 2.86742 17.3826C2.83225 17.3474 2.8125 17.2997 2.8125 17.25V14.0625H16.6875V15.5138C16.32 15.7082 16 15.9815 15.7504 16.3141C15.5008 16.6467 15.3278 17.0303 15.2438 17.4375ZM18 19.6875C17.6662 19.6875 17.34 19.5885 17.0625 19.4031C16.785 19.2177 16.5687 18.9541 16.441 18.6458C16.3132 18.3374 16.2798 17.9981 16.3449 17.6708C16.41 17.3434 16.5708 17.0428 16.8068 16.8068C17.0428 16.5708 17.3434 16.41 17.6708 16.3449C17.9981 16.2798 18.3374 16.3132 18.6458 16.441C18.9541 16.5687 19.2177 16.785 19.4031 17.0625C19.5885 17.34 19.6875 17.6662 19.6875 18C19.6875 18.4476 19.5097 18.8768 19.1932 19.1932C18.8768 19.5097 18.4476 19.6875 18 19.6875ZM22.6875 17.25C22.6875 17.2997 22.6677 17.3474 22.6326 17.3826C22.5974 17.4177 22.5497 17.4375 22.5 17.4375H20.7562C20.6258 16.8026 20.2804 16.2322 19.7783 15.8223C19.2762 15.4125 18.6481 15.1882 18 15.1875C17.9372 15.1875 17.8744 15.1875 17.8125 15.1941V11.8125H22.6875V17.25Z" fill="#434C3E"/>
</svg>
