<svg width="32" height="32" viewBox="0 0 32 32" fill="none" xmlns="http://www.w3.org/2000/svg">
<path d="M13.952 4.37599C14.1906 4.08972 14.4866 3.85665 14.8208 3.69181C15.1551 3.52696 15.5201 3.43401 15.8925 3.41893C16.2649 3.40386 16.6363 3.467 16.9827 3.60428C17.3292 3.74157 17.643 3.94995 17.904 4.21599L18.048 4.37599L23.292 10.6667H27.272C27.5518 10.6661 27.8286 10.7246 28.0842 10.8384C28.3398 10.9522 28.5685 11.1187 28.7553 11.327C28.9421 11.5353 29.0828 11.7808 29.1682 12.0473C29.2536 12.3137 29.2817 12.5952 29.2507 12.8733L29.128 13.8947L28.9947 14.8813L28.8853 15.62L28.7587 16.4133L28.6147 17.2467L28.452 18.1107L28.2707 18.992C28.1747 19.4364 28.0716 19.8804 27.9613 20.324C27.6662 21.4947 27.2956 22.6451 26.852 23.768L26.5573 24.488L26.272 25.1387L26.0027 25.7173L25.8773 25.976L25.5453 26.6293C25.1187 27.4427 24.3133 27.9227 23.4613 27.992L23.248 28H8.74C8.27387 28.0035 7.81554 27.8803 7.41397 27.6436C7.01241 27.4069 6.68268 27.0655 6.46 26.656L6.15067 26.056L5.91067 25.5627L5.784 25.2893L5.51733 24.6907C4.9084 23.2767 4.41436 21.816 4.04 20.3227C3.96762 20.0327 3.89828 19.742 3.832 19.4507L3.64267 18.5867L3.47333 17.7413L3.324 16.924L3.19067 16.1413L3.07467 15.4027L2.976 14.7187L2.856 13.808L2.768 13.0667L2.74533 12.8627C2.71775 12.6007 2.74254 12.3359 2.81825 12.0836C2.89395 11.8313 3.01907 11.5966 3.18632 11.3931C3.35358 11.1897 3.55962 11.0215 3.79247 10.8983C4.02533 10.7752 4.28034 10.6996 4.54267 10.676L4.724 10.6667H8.70933L13.952 4.37599ZM26.5107 13.3333H5.484L5.56667 13.9787L5.668 14.7093L5.79067 15.5147L5.93467 16.3787C5.988 16.6747 6.044 16.9778 6.10267 17.288L6.29333 18.2307C6.39467 18.708 6.50667 19.1933 6.62667 19.676C6.96504 21.0237 7.41091 22.3422 7.96 23.6187L8.22133 24.2067L8.464 24.7187L8.68133 25.1493L8.77734 25.3333H23.2133L23.4187 24.9293L23.6547 24.4427L23.9133 23.8787C24.4027 22.7787 24.9627 21.3213 25.3733 19.676C25.54 19.0093 25.688 18.332 25.82 17.6667L26.0067 16.6827L26.1667 15.7373L26.2373 15.2853L26.364 14.436L26.4667 13.676L26.5107 13.3333ZM13.3147 17.1147L13.9813 21.1147C14.0279 21.4582 13.9388 21.8063 13.733 22.0853C13.5272 22.3642 13.2208 22.5521 12.8788 22.609C12.5369 22.6658 12.1862 22.5873 11.9012 22.39C11.6161 22.1927 11.4192 21.8921 11.352 21.552L10.6853 17.552C10.6508 17.3769 10.6517 17.1966 10.6881 17.0219C10.7245 16.8472 10.7955 16.6815 10.8971 16.5348C10.9987 16.388 11.1287 16.2632 11.2795 16.1676C11.4302 16.072 11.5986 16.0077 11.7746 15.9784C11.9507 15.9491 12.1308 15.9555 12.3044 15.9971C12.478 16.0388 12.6414 16.1148 12.785 16.2208C12.9286 16.3267 13.0495 16.4604 13.1405 16.614C13.2315 16.7675 13.2907 16.9378 13.3147 17.1147ZM20.064 16L20.2187 16.0173C20.5414 16.0706 20.8333 16.2406 21.0388 16.4951C21.2443 16.7495 21.3491 17.0706 21.3333 17.3973L21.316 17.552L20.6493 21.552C20.5928 21.8868 20.4106 22.1874 20.14 22.3926C19.8694 22.5977 19.5307 22.6918 19.193 22.6557C18.8554 22.6197 18.5442 22.4561 18.323 22.1985C18.1018 21.9409 17.9872 21.6085 18.0027 21.2693L18.02 21.1147L18.6867 17.1147C18.7399 16.7924 18.9095 16.5009 19.1634 16.2954C19.4173 16.09 19.7377 15.9848 20.064 16ZM16 6.08265L12.18 10.6667H19.82L16 6.08265Z" fill="#434C3E"/>
</svg>
