<svg width="24" height="24" viewBox="0 0 24 24" fill="none" xmlns="http://www.w3.org/2000/svg">
<path d="M10 2.5H14C14.1326 2.5 14.2597 2.55272 14.3535 2.64648C14.4473 2.74025 14.5 2.86739 14.5 3V4.5H19C19.3978 4.5 19.7792 4.65815 20.0605 4.93945C20.3419 5.22076 20.5 5.60218 20.5 6V7C20.5 7.39782 20.3419 7.77924 20.0605 8.06055C19.7792 8.34185 19.3978 8.5 19 8.5H18.3994L18.3682 8.9668L17.6885 19.167C17.6461 19.7996 17.3643 20.392 16.9014 20.8252C16.4384 21.2583 15.8283 21.4998 15.1943 21.5H8.82617C8.19257 21.5 7.58215 21.2597 7.11914 20.8271C6.65615 20.3946 6.37512 19.8021 6.33203 19.1699L5.63574 8.96582L5.60449 8.5H5C4.60218 8.5 4.22076 8.34185 3.93945 8.06055C3.65815 7.77924 3.5 7.39782 3.5 7V6C3.5 5.60218 3.65815 5.22076 3.93945 4.93945C4.22076 4.65815 4.60218 4.5 5 4.5H9.5V3C9.5 2.86739 9.55272 2.74025 9.64648 2.64648C9.74025 2.55272 9.86739 2.5 10 2.5ZM6.64258 9.03418L7.3291 19.1016C7.35496 19.4809 7.52385 19.8371 7.80176 20.0967C8.04495 20.3237 8.35595 20.4621 8.68457 20.4932L8.82617 20.5H15.1943C15.5749 20.5 15.9409 20.3548 16.2188 20.0947C16.4966 19.8347 16.6652 19.4793 16.6904 19.0996L17.3613 9.0332L17.3965 8.5H6.60547L6.64258 9.03418ZM10 10.5C10.1326 10.5 10.2597 10.5527 10.3535 10.6465C10.4473 10.7403 10.5 10.8674 10.5 11V18C10.5 18.1326 10.4473 18.2597 10.3535 18.3535C10.2597 18.4473 10.1326 18.5 10 18.5C9.86739 18.5 9.74025 18.4473 9.64648 18.3535C9.55272 18.2597 9.5 18.1326 9.5 18V11C9.5 10.8674 9.55272 10.7403 9.64648 10.6465C9.71689 10.5761 9.80611 10.5289 9.90234 10.5098L10 10.5ZM14 10.5C14.1326 10.5 14.2597 10.5527 14.3535 10.6465C14.4473 10.7403 14.5 10.8674 14.5 11V18C14.5 18.1326 14.4473 18.2597 14.3535 18.3535C14.2597 18.4473 14.1326 18.5 14 18.5C13.8674 18.5 13.7403 18.4473 13.6465 18.3535C13.5527 18.2597 13.5 18.1326 13.5 18V11C13.5 10.8674 13.5527 10.7403 13.6465 10.6465C13.7169 10.5761 13.8061 10.5289 13.9023 10.5098L14 10.5ZM4.5 7.5H19.5V5.5H4.5V7.5Z" fill="#533A03" stroke="#533A03"/>
</svg>
